<svg width="179" height="55" fill="none" xmlns="http://www.w3.org/2000/svg"><path d="M164.746 0H14.262c-.548 0-1.09 0-1.637.003-.458.003-.912.01-1.375.017a21.462 21.462 0 00-2.997.243c-.99.154-1.948.445-2.844.862a9.64 9.64 0 00-2.42 1.621A8.677 8.677 0 00.29 7.592c-.167.91-.256 1.83-.268 2.753-.014.421-.016.844-.023 1.266v31.782c.007.427.009.84.023 1.268.012.922.101 1.843.268 2.752a8.61 8.61 0 002.697 4.838 9.394 9.394 0 002.421 1.621c.896.419 1.854.711 2.844.867.991.15 1.993.231 2.997.244.463.009.917.014 1.375.014.547.003 1.089.003 1.637.003h150.484c.537 0 1.083 0 1.621-.003.456 0 .923-.005 1.379-.014a21.562 21.562 0 002.992-.243c.993-.158 1.955-.45 2.854-.868a9.388 9.388 0 002.419-1.62 8.883 8.883 0 001.768-2.22 8.59 8.59 0 00.926-2.619c.167-.91.259-1.83.277-2.752.006-.427.006-.84.006-1.268.012-.5.012-.996.012-1.504V13.112c0-.503 0-1.003-.012-1.501 0-.422 0-.845-.006-1.266a17.092 17.092 0 00-.277-2.753 8.61 8.61 0 00-.926-2.617c-.924-1.654-2.388-3-4.187-3.85a10.746 10.746 0 00-2.854-.862 21.183 21.183 0 00-2.992-.243c-.456-.007-.923-.015-1.379-.017C165.829 0 165.283 0 164.746 0z" fill="#FAFBFC"/><path d="M12.632 53.797c-.455 0-.9-.005-1.352-.015a20.616 20.616 0 01-2.796-.224 9.348 9.348 0 01-2.479-.754 8.094 8.094 0 01-2.09-1.397 7.432 7.432 0 01-2.339-4.199 15.727 15.727 0 01-.248-2.578c-.01-.29-.022-1.256-.022-1.256V11.611s.013-.95.022-1.23c.011-.863.094-1.723.247-2.574a7.475 7.475 0 012.332-4.208 8.333 8.333 0 012.098-1.406 9.255 9.255 0 012.473-.748 20.44 20.44 0 012.805-.225l1.35-.017H166.36l1.366.018c.931.01 1.86.084 2.779.223.87.136 1.712.39 2.5.753 1.552.736 2.816 1.9 3.612 3.328.39.714.66 1.479.801 2.267.155.858.242 1.725.26 2.595.004.39.004.808.004 1.224.012.516.012 1.006.012 1.501V41.89c0 .5 0 .987-.012 1.478 0 .448 0 .857-.006 1.279a16.049 16.049 0 01-.255 2.548 7.454 7.454 0 01-.808 2.297 7.604 7.604 0 01-1.519 1.905 8.105 8.105 0 01-2.093 1.406 9.316 9.316 0 01-2.496.756c-.924.139-1.859.214-2.796.224-.438.01-.896.015-1.342.015l-1.621.003-152.114-.003z" fill="#000"/><path d="M37.05 27.913a6.389 6.389 0 01.965-3.27 7.102 7.102 0 012.56-2.439 7.407 7.407 0 00-2.603-2.132 8.1 8.1 0 00-3.367-.834c-2.511-.243-4.947 1.381-6.227 1.381-1.304 0-3.275-1.357-5.397-1.317a8.467 8.467 0 00-3.884 1.065 7.624 7.624 0 00-2.807 2.686c-2.893 4.604-.735 11.37 2.036 15.092 1.386 1.822 3.007 3.858 5.127 3.785 2.075-.079 2.85-1.216 5.354-1.216 2.482 0 3.209 1.217 5.372 1.17 2.227-.033 3.63-1.83 4.967-3.67a14.612 14.612 0 002.271-4.252c-1.293-.503-2.397-1.344-3.173-2.42a6.202 6.202 0 01-1.193-3.629zM32.965 16.79c1.213-1.34 1.811-3.061 1.667-4.8-1.855.18-3.568.994-4.798 2.282a6.275 6.275 0 00-1.356 2.155 5.896 5.896 0 00-.355 2.467 6.587 6.587 0 002.684-.54 6.081 6.081 0 002.158-1.564zm30.313 20.527h-7.08l-1.7 4.615h-3l6.707-17.075h3.116l6.706 17.075h-3.05l-1.699-4.615zm-6.347-2.13h5.612l-2.766-7.49h-.078l-2.768 7.49zm25.579.521c0 3.869-2.252 6.354-5.651 6.354a4.922 4.922 0 01-2.471-.526 4.421 4.421 0 01-1.79-1.652h-.064v6.166h-2.78V29.483h2.69v2.07h.052a4.64 4.64 0 011.825-1.647 5.146 5.146 0 012.487-.553c3.437 0 5.703 2.498 5.703 6.355zm-2.857 0c0-2.52-1.416-4.177-3.578-4.177-2.124 0-3.553 1.692-3.553 4.177 0 2.509 1.429 4.189 3.553 4.189 2.162 0 3.578-1.645 3.578-4.189zm17.764.001c0 3.868-2.253 6.353-5.652 6.353a4.923 4.923 0 01-2.471-.526 4.422 4.422 0 01-1.79-1.651h-.064v6.166h-2.78V29.482h2.69v2.07h.052a4.639 4.639 0 011.825-1.647 5.147 5.147 0 012.487-.553c3.437 0 5.703 2.498 5.703 6.355zm-2.858 0c0-2.52-1.416-4.178-3.578-4.178-2.124 0-3.553 1.692-3.553 4.178 0 2.508 1.429 4.188 3.553 4.188 2.162 0 3.579-1.645 3.579-4.188zm12.709 1.466c.206 1.693 1.996 2.805 4.441 2.805 2.343 0 4.029-1.112 4.029-2.639 0-1.325-1.017-2.119-3.424-2.663l-2.407-.533c-3.411-.757-4.995-2.223-4.995-4.603 0-2.946 2.793-4.97 6.759-4.97 3.925 0 6.616 2.024 6.707 4.97h-2.806c-.168-1.704-1.701-2.732-3.94-2.732-2.24 0-3.772 1.04-3.772 2.555 0 1.207.979 1.918 3.373 2.461l2.047.462c3.811.829 5.394 2.236 5.394 4.734 0 3.194-2.768 5.195-7.171 5.195-4.119 0-6.901-1.954-7.08-5.042h2.845zm17.406-10.638v2.946h2.575v2.024h-2.575v6.863c0 1.066.515 1.563 1.648 1.563.305-.005.611-.025.914-.06v2.012a8.292 8.292 0 01-1.544.118c-2.742 0-3.811-.946-3.811-3.36v-7.136h-1.969v-2.024h1.969v-2.946h2.793zm4.067 9.172c0-3.917 2.509-6.379 6.423-6.379 3.926 0 6.424 2.462 6.424 6.379 0 3.927-2.484 6.378-6.424 6.378-3.939 0-6.423-2.45-6.423-6.379zm10.015 0c0-2.687-1.34-4.273-3.592-4.273-2.253 0-3.591 1.598-3.591 4.273 0 2.697 1.338 4.27 3.591 4.27 2.252 0 3.592-1.573 3.592-4.27zm5.124-6.226h2.652v2.12h.064a2.965 2.965 0 011.194-1.657 3.43 3.43 0 012.063-.593c.321 0 .64.031.953.095v2.39a4.2 4.2 0 00-1.249-.154 3.018 3.018 0 00-1.18.192 2.81 2.81 0 00-.985.628 2.553 2.553 0 00-.61.948 2.379 2.379 0 00-.122 1.096v7.384h-2.78V29.483zm19.743 8.793c-.374 2.26-2.768 3.81-5.831 3.81-3.94 0-6.386-2.426-6.386-6.319 0-3.904 2.459-6.437 6.269-6.437 3.747 0 6.103 2.366 6.103 6.14v.876h-9.565v.155c-.045.458.018.92.183 1.354.164.434.428.83.772 1.164.345.334.763.596 1.226.77a3.8 3.8 0 001.462.238 3.28 3.28 0 001.879-.399 2.888 2.888 0 001.248-1.352h2.64zm-9.397-3.716h6.77a2.767 2.767 0 00-.199-1.21 2.988 2.988 0 00-.71-1.037 3.29 3.29 0 00-1.103-.688 3.509 3.509 0 00-1.309-.224 3.695 3.695 0 00-1.321.235c-.419.158-.799.39-1.12.684a3.142 3.142 0 00-.748 1.027 2.934 2.934 0 00-.26 1.213zM56.583 12.005a4.266 4.266 0 011.712.237 3.986 3.986 0 011.437.888c.402.39.705.857.886 1.367.182.51.238 1.052.164 1.585 0 2.62-1.54 4.127-4.2 4.127h-3.224v-8.204h3.225zm-1.838 7.044h1.683a3.03 3.03 0 001.22-.184 2.822 2.822 0 001.015-.647 2.55 2.55 0 00.615-.986 2.38 2.38 0 00.093-1.134 2.388 2.388 0 00-.103-1.126 2.547 2.547 0 00-.616-.979c-.281-.28-.627-.5-1.011-.643a3.036 3.036 0 00-1.213-.185h-1.683v5.884zm7.603-1.938a2.711 2.711 0 01.149-1.205 2.89 2.89 0 01.666-1.047c.3-.303.664-.544 1.07-.71a3.433 3.433 0 012.583 0c.406.166.771.407 1.07.71.3.302.526.659.667 1.047.14.388.19.798.148 1.205.043.407-.007.818-.147 1.207a2.89 2.89 0 01-.666 1.049 3.189 3.189 0 01-1.07.71 3.433 3.433 0 01-2.586 0 3.197 3.197 0 01-1.07-.71c-.3-.303-.527-.66-.667-1.05a2.71 2.71 0 01-.147-1.206zm4.986 0c0-1.342-.656-2.127-1.807-2.127-1.156 0-1.806.785-1.806 2.127 0 1.353.65 2.132 1.806 2.132 1.151 0 1.807-.785 1.807-2.132zm9.812 3.099h-1.379l-1.392-4.56h-.105l-1.386 4.56h-1.366l-1.857-6.192h1.348l1.207 4.724h.1l1.384-4.724h1.275l1.385 4.724h.105l1.201-4.724h1.33l-1.85 6.191zm3.411-6.192h1.28V15h.099c.168-.353.453-.649.813-.847a2.16 2.16 0 011.197-.256 2.38 2.38 0 01.963.133c.306.11.581.282.805.503.224.222.39.486.488.775.098.288.124.593.076.892v4.008h-1.33v-3.701c0-.995-.47-1.49-1.453-1.49a1.669 1.669 0 00-.651.102 1.558 1.558 0 00-.546.343 1.338 1.338 0 00-.412 1.124v3.622h-1.329v-6.191zm7.839-2.418h1.329v8.61h-1.33V11.6zm3.177 5.51a2.71 2.71 0 01.149-1.204 2.88 2.88 0 01.666-1.047c.3-.303.664-.544 1.07-.71a3.443 3.443 0 012.582 0c.408.166.772.407 1.071.71.3.302.526.659.667 1.047.14.388.19.798.149 1.205.043.407-.007.818-.147 1.207a2.89 2.89 0 01-.667 1.049 3.189 3.189 0 01-1.07.71 3.433 3.433 0 01-2.586 0 3.197 3.197 0 01-1.071-.71 2.87 2.87 0 01-.666-1.05 2.71 2.71 0 01-.147-1.206zm4.986 0c0-1.341-.656-2.126-1.808-2.126-1.155 0-1.805.785-1.805 2.127 0 1.353.65 2.132 1.805 2.132 1.152 0 1.807-.785 1.807-2.132zm2.767 1.348c0-1.114.903-1.757 2.505-1.848l1.825-.097v-.534c0-.654-.471-1.023-1.379-1.023-.742 0-1.256.25-1.404.688h-1.287c.136-1.064 1.224-1.746 2.752-1.746 1.689 0 2.641.773 2.641 2.08v4.231H103.7v-.87h-.106a2.203 2.203 0 01-.868.738c-.356.17-.754.251-1.155.234-.282.027-.568 0-.839-.081a2.095 2.095 0 01-.731-.387 1.89 1.89 0 01-.497-.627 1.743 1.743 0 01-.178-.758zm4.33-.529v-.517l-1.645.096c-.928.057-1.348.348-1.348.893 0 .558.526.882 1.249.882.212.02.426 0 .629-.058s.392-.153.555-.28c.163-.125.296-.28.392-.455.096-.175.153-.365.168-.56zm3.07-.819c0-1.955 1.095-3.195 2.796-3.195a2.38 2.38 0 011.205.267c.366.193.664.477.861.82h.099V11.6h1.33v8.608h-1.274v-.978h-.105c-.212.34-.521.621-.894.811-.373.19-.795.284-1.222.27-1.713 0-2.796-1.24-2.796-3.201zm1.374 0c0 1.314.673 2.104 1.799 2.104 1.121 0 1.813-.801 1.813-2.098 0-1.29-.7-2.103-1.813-2.103-1.119 0-1.799.795-1.799 2.098zm10.416.001a2.721 2.721 0 01.149-1.205 2.9 2.9 0 01.667-1.047 3.191 3.191 0 011.07-.71 3.433 3.433 0 012.582 0c.407.166.771.407 1.07.71a2.9 2.9 0 01.667 1.047c.14.388.191.798.148 1.205a2.7 2.7 0 01-.146 1.207c-.14.388-.367.746-.666 1.049-.3.303-.664.545-1.071.71a3.44 3.44 0 01-2.586 0 3.205 3.205 0 01-1.071-.71 2.891 2.891 0 01-.666-1.05 2.71 2.71 0 01-.147-1.206zm4.986 0c0-1.342-.656-2.127-1.807-2.127-1.155 0-1.805.785-1.805 2.127 0 1.353.65 2.132 1.805 2.132 1.151 0 1.807-.785 1.807-2.132zm3.151-3.093h1.28V15h.099a1.92 1.92 0 01.813-.847 2.162 2.162 0 011.197-.256 2.38 2.38 0 01.963.133c.306.11.581.282.805.503.224.222.391.486.489.775.097.288.123.593.075.892v4.008h-1.33v-3.701c0-.995-.47-1.49-1.453-1.49a1.665 1.665 0 00-.651.102 1.558 1.558 0 00-.546.343 1.41 1.41 0 00-.339.52 1.31 1.31 0 00-.072.604v3.622h-1.33v-6.191zm13.232-1.542v1.57h1.459v1.03h-1.459v3.183c0 .648.291.933.953.933.169-.001.338-.01.506-.029v1.018c-.238.04-.48.06-.723.063-1.478 0-2.067-.478-2.067-1.672v-3.497h-1.069v-1.029h1.069v-1.57h1.331zm3.275-.876h1.318v3.413h.105c.177-.357.469-.655.836-.853a2.223 2.223 0 011.218-.256 2.39 2.39 0 01.954.146c.303.113.575.286.796.506a2 2 0 01.486.77c.099.286.127.588.083.886v3.997h-1.33v-3.696c0-.989-.501-1.49-1.44-1.49a1.705 1.705 0 00-.674.085c-.215.073-.41.188-.572.338a1.45 1.45 0 00-.363.528 1.33 1.33 0 00-.087.62v3.615h-1.33v-8.608zm13.548 6.938a2.541 2.541 0 01-1.106 1.382 2.922 2.922 0 01-1.813.409 3.29 3.29 0 01-1.292-.23 3.064 3.064 0 01-1.069-.706 2.765 2.765 0 01-.646-1.054 2.6 2.6 0 01-.105-1.206 2.642 2.642 0 01.107-1.21c.129-.39.349-.752.643-1.059a3.108 3.108 0 011.064-.718 3.34 3.34 0 011.292-.248c1.874 0 3.005 1.177 3.005 3.122v.426h-4.756v.068c-.021.228.01.456.091.672.081.215.21.413.379.58.169.167.374.3.602.39.227.09.473.135.721.132a1.74 1.74 0 00.926-.151c.285-.134.521-.342.677-.6h1.28zm-4.676-1.996h3.402a1.396 1.396 0 00-.09-.613 1.492 1.492 0 00-.353-.526 1.637 1.637 0 00-.554-.35 1.753 1.753 0 00-.661-.115 1.854 1.854 0 00-.671.117c-.213.08-.407.198-.569.347-.163.15-.291.328-.378.523a1.48 1.48 0 00-.126.617z" fill="#fff"/></svg>