<svg width="32" height="32" fill="none" xmlns="http://www.w3.org/2000/svg"><rect width="32" height="32" rx="16" fill="#fff" fill-opacity=".5"/><mask id="a" maskUnits="userSpaceOnUse" x="8" y="9" width="16" height="14"><path fill-rule="evenodd" clip-rule="evenodd" d="M10.266 12.182h-.021c-1.059 0-1.745-.701-1.745-1.59C8.5 9.686 9.206 9 10.286 9c1.079 0 1.742.685 1.763 1.59 0 .888-.684 1.592-1.783 1.592zM23.5 22.5h-3.315v-4.746c0-1.242-.519-2.09-1.659-2.09-.872 0-1.357.572-1.583 1.124-.075.174-.073.409-.072.65V22.5h-3.284s.043-8.407 0-9.17h3.285v1.438c.194-.629 1.243-1.527 2.918-1.527 2.078 0 3.71 1.32 3.71 4.16V22.5zm-11.698-9.17H8.878v9.17h2.924v-9.17z" fill="#fff"/></mask><g mask="url(#a)" fill="#fff"><path d="M8 8h16v16H8z"/><path d="M8 8h16v16H8z"/></g></svg>