<svg width="555" height="180" fill="none" xmlns="http://www.w3.org/2000/svg"><g clip-path="url(#clip0)" fill="#fff"><path d="M68.65 47.965c11.105 0 20.108-10.737 20.108-23.982C88.758 10.737 79.755 0 68.65 0 57.543 0 48.54 10.737 48.54 23.983c0 13.245 9.004 23.982 20.11 23.982zM50.1 148.571c-3.64 3.897-12.828 17.057-12.828 17.057H104.1s-10.228-13.68-14.128-17.836c-17.162-18.355-32.071-7.532-39.872.779zm16.382-57.229l-20.456-9.697 22.19 28.052c.346.519 1.3 2.597 2.947.26l24.01-27.706-20.37 9.178a10.316 10.316 0 01-8.32-.087z"/><path d="M143.452 44.849c-1.473-1.905-4.074-2.598-6.241-1.645l-66.395 29.87-63.448-29.87a5.099 5.099 0 00-6.241 1.471 5.195 5.195 0 000 6.407l52.267 66.234-40.999 54.459c-1.213 1.558-1.387 3.636-.52 5.454.867 1.819 2.687 2.858 4.594 2.858h108.954a5.166 5.166 0 004.681-2.944c.867-1.818.607-3.896-.607-5.455l-43.166-54.545 56.861-65.888a4.975 4.975 0 00.26-6.407zm-67.695 68.744c-1.647 1.905-1.647 4.675-.174 6.58l39.179 49.524H26.87l37.185-49.351c1.387-1.904 1.387-4.502-.087-6.32L22.883 61.991l45.68 21.559c1.386.606 2.946.692 4.333 0l47.154-21.3-44.292 51.342zm108.434 18.528c-5.981-5.974-9.015-13.333-9.015-21.991s3.034-16.017 9.015-22.078c5.981-6.06 13.348-9.09 22.016-9.09 8.668 0 15.949 3.03 22.016 9.09 6.068 6.06 9.102 13.42 9.102 22.078s-3.034 15.931-9.102 21.991c-6.067 5.974-13.348 9.005-22.016 9.005-8.668 0-15.949-2.944-22.016-9.005zm8.061-36.017c-3.9 3.896-5.807 8.571-5.807 14.026 0 5.454 1.907 10.13 5.807 13.939 3.901 3.896 8.495 5.801 13.955 5.801 5.461 0 10.142-1.905 14.042-5.801 3.901-3.896 5.808-8.485 5.808-13.939 0-5.455-1.994-10.13-5.895-14.026-3.9-3.896-8.581-5.888-13.955-5.888-5.374 0-10.054 1.992-13.955 5.888zm91.012 24.329c0 5.887-1.82 10.909-5.461 14.805-3.64 3.983-8.407 5.974-14.302 5.974-3.553 0-6.674-.519-9.621-1.645v19.307c0 .433-.173.866-.607 1.299-.433.433-.866.606-1.3.606h-7.021c-.52 0-.953-.173-1.3-.606-.347-.433-.52-.866-.52-1.299v-56.623c0-.519.173-.952.52-1.299.347-.346.78-.519 1.3-.519h3.207c.867 0 1.474.606 1.907 1.905l1.041 3.203c.086-.173.26-.346.52-.606s.78-.693 1.56-1.385c.867-.693 1.733-1.299 2.687-1.818.953-.52 2.167-.953 3.64-1.386 1.474-.433 3.034-.606 4.594-.606 5.461 0 10.055 1.992 13.609 5.888 3.727 3.809 5.547 8.744 5.547 14.805zm-29.384-5.541v14.199c2.167 1.472 4.941 2.251 8.321 2.251 3.121 0 5.548-1.039 7.281-3.203 1.734-2.165 2.601-4.762 2.601-7.706 0-3.03-.867-5.541-2.514-7.792-1.647-2.165-3.987-3.29-6.934-3.29-2.341 0-4.248.606-5.808 1.731-1.387 1.212-2.427 2.424-2.947 3.81zm33.111 5.454c0-5.714 1.907-10.649 5.721-14.718 3.814-4.07 8.581-6.06 14.389-6.06 5.2 0 9.621 1.731 13.088 5.194 3.467 3.463 5.201 7.879 5.201 13.247 0 .952-.087 1.818-.174 2.597-.086.52-.26.952-.606 1.299a1.715 1.715 0 01-1.214.519h-25.57c.087 2.511 1.04 4.676 2.86 6.494 1.907 1.818 4.248 2.684 7.021 2.684 3.294 0 6.154-.953 8.581-2.944 1.127-.952 1.994-.952 2.601 0l3.38 4.502c.78.953.78 1.818-.173 2.598-4.247 3.636-9.188 5.454-14.822 5.454-5.894 0-10.748-1.991-14.475-6.06-3.901-4.07-5.808-9.005-5.808-14.806zm11.355-5.021h16.122c-.086-1.992-.867-3.637-2.253-4.935-1.387-1.299-3.208-1.992-5.374-1.992-2.341 0-4.248.606-5.808 1.905-1.473 1.385-2.34 3.03-2.687 5.022zm32.591 23.03v-36.104c0-.519.173-.952.52-1.299.347-.346.78-.519 1.3-.519h3.294c.78 0 1.387.433 1.647 1.212l1.473 3.723c3.468-3.896 7.715-5.8 12.829-5.8 10.661 0 15.949 6.06 15.949 18.181v20.606c0 .52-.174.952-.607 1.299-.434.346-.867.519-1.3.519h-7.021c-.52 0-.954-.173-1.3-.519-.347-.347-.52-.779-.52-1.299v-20.606c0-5.541-2.341-8.398-6.935-8.398-4.334 0-7.194 2.078-8.668 6.233v22.771c0 .779-.173 1.212-.52 1.472-.346.26-1.04.346-1.993.346h-6.241c-.433 0-.867-.173-1.3-.519-.434-.26-.607-.779-.607-1.299zm49.147.26V90.216h-13.176c-.433 0-.866-.173-1.126-.432-.347-.347-.434-.693-.434-1.126v-7.1c0-.433.174-.865.434-1.125.346-.346.693-.433 1.126-.433h37.705c.434 0 .867.173 1.127.433.347.346.434.692.434 1.125v7.1c0 .433-.174.866-.434 1.126-.346.346-.693.432-1.127.432h-13.175v48.399c0 .433-.173.779-.433 1.125-.347.347-.693.52-1.127.52h-8.061c-.433 0-.78-.173-1.127-.52-.346-.346-.606-.692-.606-1.125zm21.842-18.269c0-5.714 1.907-10.649 5.721-14.718 3.814-4.07 8.581-6.06 14.389-6.06 5.2 0 9.621 1.731 13.088 5.194 3.467 3.463 5.201 7.879 5.201 13.247 0 .952-.087 1.818-.174 2.597-.086.52-.26.952-.606 1.299-.347.346-.78.519-1.214.519h-25.57c.087 2.511 1.04 4.676 2.861 6.494 1.907 1.818 4.247 2.684 7.021 2.684 3.293 0 6.154-.953 8.581-2.944 1.126-.952 1.993-.952 2.6 0l3.38 4.502c.781.953.781 1.818-.173 2.598-4.247 3.636-9.188 5.454-14.822 5.454-5.894 0-10.748-1.991-14.475-6.06-3.727-4.07-5.808-9.005-5.808-14.806zm11.355-5.021h16.122c-.086-1.992-.866-3.637-2.253-4.935-1.387-1.299-3.207-1.992-5.374-1.992-2.341 0-4.247.606-5.808 1.905-1.473 1.385-2.34 3.03-2.687 5.022zm32.591 23.03v-36.104c0-.519.174-.952.52-1.299.347-.346.78-.519 1.3-.519h3.121c.953 0 1.473.346 1.647 1.126l1.473 3.809c3.381-3.896 7.368-5.8 12.135-5.8 2.774 0 5.028.432 6.674 1.384 1.734.953 3.468 2.511 5.201 4.589 3.814-3.982 8.148-6.06 12.829-6.06 5.894 0 10.054 1.645 12.308 4.848 2.34 3.29 3.467 7.792 3.467 13.593v20.346c0 .52-.173.953-.52 1.299-.347.346-.867.52-1.387.52h-6.934c-.52 0-.954-.174-1.3-.52-.347-.346-.52-.779-.52-1.299v-20.519c0-5.541-2.341-8.398-6.935-8.398-1.733 0-3.207.346-4.42 1.039-1.214.692-2.081 1.385-2.427 2.078l-.52 1.039c.086 1.298.173 2.597.173 3.809v21.039c0 .52-.173.952-.607 1.299-.433.346-.867.519-1.3.519h-7.108c-.606 0-1.04-.173-1.386-.519-.347-.347-.52-.779-.52-1.299v-20.606c0-2.771-.521-4.848-1.474-6.234-.953-1.385-2.687-2.078-5.114-2.078-3.727 0-6.241 2.078-7.714 6.234v22.771c0 .519-.174.952-.607 1.298-.433.347-.867.52-1.3.52h-7.021c-.434 0-.867-.173-1.3-.52-.26-.346-.434-.865-.434-1.385zM555 120.433c0 5.887-1.82 10.909-5.461 14.805-3.64 3.983-8.407 5.974-14.302 5.974-3.553 0-6.674-.519-9.621-1.645v19.307c0 .433-.173.866-.607 1.299-.433.433-.866.606-1.3.606h-7.021c-.52 0-.953-.173-1.3-.606-.347-.433-.52-.866-.52-1.299v-56.623c0-.519.173-.952.52-1.299.347-.346.78-.519 1.3-.519h3.207c.867 0 1.474.606 1.907 1.905l1.04 3.203c.087-.173.26-.346.52-.606.261-.26.781-.693 1.561-1.385.866-.693 1.733-1.299 2.687-1.818.953-.52 2.167-.953 3.64-1.386 1.474-.433 3.034-.606 4.594-.606 5.461 0 10.055 1.992 13.609 5.888 3.727 3.809 5.547 8.744 5.547 14.805zm-29.384-5.541v14.199c2.167 1.472 4.941 2.251 8.321 2.251 3.121 0 5.548-1.039 7.281-3.203 1.734-2.165 2.601-4.762 2.601-7.706 0-3.03-.867-5.541-2.514-7.792-1.647-2.165-3.987-3.29-6.934-3.29-2.341 0-4.248.606-5.808 1.731-1.473 1.212-2.427 2.424-2.947 3.81z"/></g><defs><clipPath id="clip0"><path fill="#fff" d="M0 0h555v180H0z"/></clipPath></defs></svg>