<svg width="203" height="66" fill="none" xmlns="http://www.w3.org/2000/svg"><g clip-path="url(#clip0)"><path d="M25.11 17.587c4.062 0 7.355-3.937 7.355-8.793C32.465 3.937 29.172 0 25.109 0c-4.062 0-7.355 3.937-7.355 8.794 0 4.856 3.293 8.793 7.355 8.793zm-6.785 36.889c-1.332 1.429-4.692 6.254-4.692 6.254h24.443s-3.74-5.016-5.167-6.54c-6.278-6.73-11.73-2.761-14.584.286zm5.992-20.984l-7.482-3.555 8.116 10.285c.127.19.476.953 1.078.096l8.782-10.16-7.45 3.366a3.765 3.765 0 01-3.044-.032z" fill="#39B54A"/><path d="M52.47 16.445c-.539-.699-1.49-.953-2.283-.604L25.902 26.794 2.695 15.84a1.862 1.862 0 00-2.283.54 1.909 1.909 0 000 2.35L19.53 43.015 4.534 62.984c-.444.572-.508 1.334-.19 2a1.848 1.848 0 001.68 1.048h39.852a1.904 1.904 0 001.49-3.08l-15.789-20 20.798-24.158a1.83 1.83 0 00.095-2.35zM27.71 41.65a1.916 1.916 0 00-.064 2.413l14.33 18.158H9.828L23.43 44.127c.507-.698.507-1.65-.031-2.317L8.37 22.73l16.708 7.905c.507.222 1.078.254 1.585 0l17.247-7.81-16.2 18.826z" fill="#39B54A"/><path d="M67.37 48.444c-2.187-2.19-3.296-4.888-3.296-8.063 0-3.175 1.11-5.873 3.297-8.095 2.187-2.223 4.882-3.334 8.053-3.334 3.17 0 5.833 1.111 8.052 3.334 2.22 2.222 3.33 4.92 3.33 8.095 0 3.175-1.11 5.841-3.33 8.063-2.219 2.19-4.882 3.302-8.052 3.302s-5.834-1.08-8.053-3.302zm2.95-13.206c-1.427 1.429-2.125 3.143-2.125 5.143s.698 3.714 2.124 5.111c1.427 1.429 3.107 2.127 5.105 2.127 1.997 0 3.709-.698 5.136-2.127 1.426-1.428 2.124-3.111 2.124-5.111 0-2-.73-3.714-2.156-5.143-1.427-1.428-3.139-2.159-5.104-2.159-1.966 0-3.678.73-5.105 2.16zm33.288 8.921c0 2.159-.665 4-1.997 5.428-1.332 1.46-3.075 2.19-5.231 2.19-1.3 0-2.441-.19-3.52-.602v7.08c0 .158-.063.316-.221.475-.159.159-.317.223-.476.223h-2.568a.57.57 0 01-.475-.223.759.759 0 01-.19-.476V37.492c0-.19.063-.349.19-.476a.645.645 0 01.475-.19h1.173c.317 0 .54.222.698.698l.38 1.175c.032-.064.095-.127.19-.223.096-.095.286-.254.571-.508.317-.254.634-.476.983-.666.349-.19.792-.35 1.331-.508a5.956 5.956 0 011.68-.222c1.998 0 3.678.73 4.978 2.158 1.364 1.397 2.029 3.207 2.029 5.429zm-10.747-2.032v5.206c.792.54 1.807.826 3.043.826 1.142 0 2.03-.381 2.663-1.175.635-.793.952-1.746.952-2.825 0-1.111-.318-2.032-.92-2.857-.602-.794-1.458-1.207-2.536-1.207-.856 0-1.554.223-2.124.635-.508.445-.888.89-1.078 1.397zm12.111 2c0-2.095.697-3.905 2.092-5.397 1.395-1.492 3.139-2.222 5.263-2.222 1.902 0 3.519.635 4.787 1.905 1.268 1.27 1.903 2.889 1.903 4.857 0 .35-.032.667-.064.952a.835.835 0 01-.222.477.625.625 0 01-.444.19h-9.352c.031.92.38 1.714 1.046 2.381.697.667 1.553.984 2.568.984 1.205 0 2.251-.35 3.139-1.08.412-.349.729-.349.951 0l1.236 1.651c.285.35.286.667-.063.953-1.554 1.333-3.361 2-5.422 2-2.155 0-3.931-.73-5.294-2.222-1.427-1.492-2.124-3.302-2.124-5.429zm4.153-1.841h5.897a2.552 2.552 0 00-.824-1.81c-.508-.476-1.174-.73-1.966-.73-.856 0-1.554.222-2.124.699a3.19 3.19 0 00-.983 1.84zm11.921 8.444V37.492c0-.19.063-.349.19-.476a.644.644 0 01.475-.19h1.205c.285 0 .507.158.602.444l.539 1.365c1.269-1.428 2.822-2.127 4.693-2.127 3.899 0 5.833 2.222 5.833 6.667v7.555a.57.57 0 01-.222.477.76.76 0 01-.475.19h-2.568a.645.645 0 01-.476-.19.646.646 0 01-.19-.477v-7.555c0-2.032-.856-3.08-2.537-3.08-1.585 0-2.631.762-3.17 2.286v8.35c0 .285-.063.444-.19.539-.127.095-.381.127-.729.127h-2.283a.763.763 0 01-.476-.19c-.158-.096-.221-.286-.221-.477zm17.976.095V33.08h-4.819a.605.605 0 01-.413-.158.528.528 0 01-.158-.413v-2.603c0-.16.063-.318.158-.413a.526.526 0 01.413-.159h13.791c.158 0 .317.064.412.159a.525.525 0 01.158.413v2.603a.604.604 0 01-.158.413.525.525 0 01-.412.158h-4.819v17.746a.67.67 0 01-.159.413c-.127.127-.253.19-.412.19h-2.948c-.159 0-.286-.063-.412-.19-.127-.127-.222-.254-.222-.413zm7.989-6.698c0-2.095.697-3.905 2.092-5.397 1.395-1.492 3.139-2.222 5.263-2.222 1.903 0 3.519.635 4.788 1.905 1.268 1.27 1.902 2.889 1.902 4.857 0 .35-.032.667-.064.952a.829.829 0 01-.222.477.623.623 0 01-.443.19h-9.353c.032.92.38 1.714 1.046 2.381.698.667 1.554.984 2.568.984 1.205 0 2.251-.35 3.139-1.08.412-.349.729-.349.951 0l1.236 1.651c.286.35.286.667-.063.953-1.553 1.333-3.361 2-5.421 2-2.156 0-3.932-.73-5.295-2.222s-2.124-3.302-2.124-5.429zm4.153-1.841h5.897a2.552 2.552 0 00-.824-1.81c-.507-.476-1.173-.73-1.966-.73-.856 0-1.553.222-2.124.699a3.19 3.19 0 00-.983 1.84zm11.921 8.444V37.492c0-.19.063-.35.19-.476a.645.645 0 01.476-.19h1.141c.349 0 .539.126.602.412l.539 1.397c1.237-1.429 2.695-2.127 4.439-2.127 1.014 0 1.839.158 2.441.508.634.349 1.268.92 1.902 1.682 1.395-1.46 2.98-2.222 4.692-2.222 2.156 0 3.678.603 4.502 1.778.856 1.206 1.269 2.857 1.269 4.984v7.46a.65.65 0 01-.191.477.718.718 0 01-.507.19h-2.536a.646.646 0 01-.666-.667v-7.523c0-2.032-.856-3.08-2.536-3.08-.634 0-1.173.127-1.617.381-.444.254-.761.508-.888.762l-.19.38c.032.477.063.953.063 1.398v7.714a.57.57 0 01-.222.476.76.76 0 01-.475.19h-2.6c-.222 0-.38-.063-.507-.19a.646.646 0 01-.19-.476v-7.555c0-1.016-.191-1.778-.539-2.286-.349-.508-.983-.762-1.871-.762-1.363 0-2.283.762-2.822 2.286v8.349a.57.57 0 01-.222.476.76.76 0 01-.475.19h-2.568c-.159 0-.317-.063-.476-.19a.88.88 0 01-.158-.508zM203 44.159c0 2.159-.666 4-1.997 5.428-1.332 1.46-3.076 2.19-5.231 2.19-1.3 0-2.442-.19-3.52-.602v7.08c0 .158-.063.316-.221.475-.159.159-.318.223-.476.223h-2.568a.572.572 0 01-.476-.223.765.765 0 01-.19-.476V37.492a.65.65 0 01.666-.666h1.173c.317 0 .539.222.697.698l.381 1.175a1.02 1.02 0 01.19-.223c.095-.095.285-.254.571-.508.317-.254.634-.476.983-.666.348-.19.792-.35 1.331-.508a5.96 5.96 0 011.681-.222c1.997 0 3.677.73 4.977 2.158 1.363 1.397 2.029 3.207 2.029 5.429zm-10.748-2.032v5.206c.793.54 1.808.826 3.044.826 1.141 0 2.029-.381 2.663-1.175.634-.793.951-1.746.951-2.825 0-1.111-.317-2.032-.919-2.857-.603-.794-1.459-1.207-2.536-1.207-.856 0-1.554.223-2.125.635-.539.445-.887.89-1.078 1.397z" fill="#000"/></g><defs><clipPath id="clip0"><path fill="#fff" d="M0 0h203v66H0z"/></clipPath></defs></svg>