<svg width="179" height="53" fill="none" xmlns="http://www.w3.org/2000/svg"><g clip-path="url(#clip0)"><path d="M172.37 0H6.63A6.627 6.627 0 000 6.625v39.75A6.627 6.627 0 006.63 53h165.74a6.627 6.627 0 006.63-6.625V6.625A6.627 6.627 0 00172.37 0z" fill="#000"/><path d="M172.37 1.06a5.57 5.57 0 015.569 5.565v39.75a5.57 5.57 0 01-5.569 5.565H6.63a5.571 5.571 0 01-5.57-5.565V6.625A5.563 5.563 0 016.63 1.06h165.74zm0-1.06H6.63a6.632 6.632 0 00-4.688 1.94A6.623 6.623 0 000 6.625v39.75c0 1.757.698 3.442 1.942 4.685A6.632 6.632 0 006.63 53h165.74a6.63 6.63 0 006.63-6.625V6.625A6.63 6.63 0 00172.37 0z" fill="#fff"/><path d="M90.349 28.819a5.637 5.637 0 00-5.188 3.494 5.628 5.628 0 004.124 7.662 5.639 5.639 0 005.777-2.4 5.63 5.63 0 00.948-3.125 5.549 5.549 0 00-3.484-5.232 5.559 5.559 0 00-2.177-.4zm0 9.05a3.422 3.422 0 01-3.62-3.928 3.418 3.418 0 012.62-2.816 3.423 3.423 0 014.182 3.325 3.258 3.258 0 01-3.183 3.418zm-12.345-9.05a5.637 5.637 0 00-5.197 3.485 5.628 5.628 0 004.116 7.67 5.64 5.64 0 005.78-2.397 5.628 5.628 0 00.95-3.127 5.547 5.547 0 00-3.485-5.232 5.559 5.559 0 00-2.177-.4h.013zm0 9.05a3.422 3.422 0 01-3.635-3.918 3.418 3.418 0 012.618-2.824 3.423 3.423 0 013.587 1.4 3.42 3.42 0 01.6 1.923 3.256 3.256 0 01-1.922 3.133 3.261 3.261 0 01-1.261.285h.013zM63.3 30.553v2.385h5.728a4.994 4.994 0 01-1.326 3.008 5.86 5.86 0 01-4.416 1.75 6.367 6.367 0 01-4.5-1.864 6.358 6.358 0 014.5-10.857 6.102 6.102 0 014.336 1.71l1.684-1.683a8.34 8.34 0 00-6.006-2.478 8.77 8.77 0 00-8.405 5.321 8.753 8.753 0 004.947 11.616 8.771 8.771 0 003.458.566 7.962 7.962 0 006.112-2.451 7.947 7.947 0 002.069-5.592 7.767 7.767 0 00-.133-1.497l-8.048.066zm60.077 1.855a5.306 5.306 0 00-4.826-3.59 5.307 5.307 0 00-4.999 3.5 5.306 5.306 0 00-.305 2.13 5.511 5.511 0 003.432 5.225c.687.28 1.423.418 2.164.407a5.616 5.616 0 004.693-2.49l-1.922-1.326a3.22 3.22 0 01-2.771 1.564 2.864 2.864 0 01-2.732-1.71l7.545-3.113-.279-.597zm-7.69 1.882a3.084 3.084 0 012.944-3.286 2.188 2.188 0 012.095 1.192l-5.039 2.094zm-6.126 5.459h2.48V23.187h-2.48V39.75zm-4.057-9.673h-.093a3.979 3.979 0 00-2.97-1.325 5.643 5.643 0 000 11.276 3.847 3.847 0 002.97-1.325h.08v.808c0 2.16-1.154 3.313-3.01 3.313a3.12 3.12 0 01-2.838-2l-2.161.9a5.368 5.368 0 004.999 3.326c2.904 0 5.303-1.71 5.303-5.87V29.15h-2.28v.927zm-2.838 7.791a3.435 3.435 0 01-3.132-3.418 3.431 3.431 0 013.132-3.419 3.184 3.184 0 013.01 3.419 3.155 3.155 0 01-3.023 3.418h.013zm32.326-14.68h-5.926V39.75h2.479v-6.28h3.461a5.159 5.159 0 005.527-5.142 5.149 5.149 0 00-1.644-3.773 5.153 5.153 0 00-3.883-1.368h-.014zm0 7.95h-3.46v-5.645h3.514a2.847 2.847 0 012.844 2.842 2.843 2.843 0 01-2.844 2.842l-.054-.04zm15.288-2.386a4.641 4.641 0 00-4.415 2.531l2.201.914a2.348 2.348 0 012.254-1.219 2.388 2.388 0 012.652 2.134v.172a5.478 5.478 0 00-2.586-.636c-2.373 0-4.773 1.325-4.773 3.723a3.833 3.833 0 004.111 3.644 3.489 3.489 0 003.182-1.59h.079v1.325h2.387v-6.373c0-2.902-2.201-4.585-5.025-4.585l-.067-.04zm-.305 9.077c-.808 0-1.935-.411-1.935-1.405 0-1.325 1.405-1.762 2.651-1.762a4.408 4.408 0 012.255.556 2.993 2.993 0 01-2.904 2.65l-.067-.04zm14.095-8.68l-2.837 7.182h-.08l-2.944-7.181h-2.651l4.415 10.043-2.519 5.579h2.585l6.789-15.622h-2.758zm-22.289 10.6h2.48v-16.56h-2.48V39.75z" fill="#fff"/><path d="M13.843 9.99a2.649 2.649 0 00-.61 1.855v29.31c-.04.673.178 1.336.61 1.855l.092.092L30.364 26.7v-.385L13.935 9.898l-.092.092z" fill="url(#paint0_linear)"/><path d="M35.8 32.171l-5.436-5.472v-.385L35.8 20.83l.12.066 6.51 3.697c1.856 1.047 1.856 2.77 0 3.83l-6.484 3.683-.146.066z" fill="url(#paint1_linear)"/><path d="M35.96 32.092L30.363 26.5l-16.52 16.51a2.162 2.162 0 002.758.079l19.371-10.997" fill="url(#paint2_linear)"/><path d="M35.959 20.909L16.587 9.91a2.162 2.162 0 00-2.758.08L30.364 26.5l5.595-5.591z" fill="url(#paint3_linear)"/><path opacity=".2" d="M35.8 31.972L16.587 42.903a2.215 2.215 0 01-2.652 0l-.092.093.092.093a2.202 2.202 0 002.652 0L35.96 32.092l-.159-.12z" fill="#000"/><path opacity=".12" d="M13.843 42.824a2.648 2.648 0 01-.61-1.855v.199c-.04.673.178 1.337.61 1.855l.092-.093-.092-.106zM42.43 28.223l-6.63 3.75.12.119 6.51-3.684a2.32 2.32 0 001.326-1.908 2.465 2.465 0 01-1.326 1.723z" fill="#000"/><path opacity=".25" d="M16.587 10.097l25.843 14.68a2.464 2.464 0 011.326 1.723 2.318 2.318 0 00-1.326-1.908L16.587 9.911c-1.856-1.047-3.367-.172-3.367 1.948v.198c.04-2.133 1.524-3.007 3.367-1.96z" fill="#fff"/><path d="M54.734 17.225v-7.95h2.44a3.98 3.98 0 012.93 1.1 3.896 3.896 0 011.1 2.875 3.894 3.894 0 01-1.1 2.875 3.979 3.979 0 01-2.93 1.1h-2.44zm1.021-.98h1.406a2.986 2.986 0 002.188-.796 2.954 2.954 0 00.808-2.199 2.768 2.768 0 00-2.983-2.995h-1.485l.066 5.99zm6.882.98v-7.95h1.008v7.95h-1.008zm5.078.172a2.971 2.971 0 01-1.697-.57 2.65 2.65 0 01-1.087-1.59l.928-.37c.106.427.342.811.676 1.1.319.29.735.45 1.167.45a1.86 1.86 0 001.14-.345 1.114 1.114 0 00.477-.954 1.218 1.218 0 00-.477-1.02 4.896 4.896 0 00-1.498-.676 3.978 3.978 0 01-1.605-.861 1.802 1.802 0 01-.543-1.325 1.974 1.974 0 01.676-1.484 2.48 2.48 0 011.75-.65 2.56 2.56 0 011.644.504c.379.276.665.66.822 1.1l-.928.384a1.324 1.324 0 00-.49-.702 1.737 1.737 0 00-2.029 0 .993.993 0 00-.411.821.928.928 0 00.385.756c.342.244.723.427 1.127.543.333.106.66.23.98.37.282.132.548.292.796.478.263.187.473.438.61.729.146.32.218.668.212 1.02.007.359-.075.714-.238 1.034a1.934 1.934 0 01-.637.715c-.26.179-.546.317-.848.41a3.183 3.183 0 01-.902.133v0zm5.211-.172h-1.021v-7.95h2.652a2.52 2.52 0 011.75.676 2.306 2.306 0 010 3.392 2.507 2.507 0 01-1.75.675h-1.631v3.207zm0-4.2h1.71a1.327 1.327 0 001.035-.438 1.326 1.326 0 000-1.908 1.327 1.327 0 00-1.035-.437h-1.71v2.783zm11.933 3.166a4.138 4.138 0 01-5.834 0 4.291 4.291 0 010-5.896 4.11 4.11 0 015.834 0 4.278 4.278 0 010 5.896zm-5.078-.662a3.064 3.064 0 004.322 0 3.39 3.39 0 000-4.558 3.064 3.064 0 00-4.322 0 3.39 3.39 0 000 4.558v0zm7.664 1.696v-7.95h1.246l3.872 6.188V9.275h1.02v7.95h-1.06l-4.044-6.48v6.48h-1.034zm7.955 0v-7.95h1.021v7.95h-1.02zm2.838 0v-7.95h2.877a2.334 2.334 0 011.618.61 2.005 2.005 0 01.689 1.55c.006.353-.095.7-.291.993a1.85 1.85 0 01-.783.65c.385.127.722.367.968.689.255.324.391.727.385 1.14a2.087 2.087 0 01-.716 1.616 2.454 2.454 0 01-1.697.649l-3.05.053zm1.02-4.545h1.857a1.196 1.196 0 00.928-.384 1.18 1.18 0 00.053-1.696 1.138 1.138 0 00-.888-.384h-1.95v2.464zm0 3.564h2.056a1.218 1.218 0 00.955-.41c.233-.243.366-.565.371-.901a1.327 1.327 0 00-1.326-1.325h-2.055v2.636zm5.808.981v-7.95h1.008v6.97h3.448v.98h-4.456zm10.396-6.97h-3.62v2.518h3.262v.954h-3.262v2.517h3.62v.981h-4.641v-7.95h4.641v.98zm6.178 7.142a2.974 2.974 0 01-1.697-.57 2.65 2.65 0 01-1.087-1.59l.928-.37c.107.427.343.811.676 1.1.319.29.736.45 1.167.45.408.013.809-.108 1.141-.345a1.11 1.11 0 00.477-.954 1.225 1.225 0 00-.477-1.02 4.903 4.903 0 00-1.499-.676 3.978 3.978 0 01-1.604-.861 1.786 1.786 0 01-.409-.606 1.79 1.79 0 01-.135-.72 1.976 1.976 0 01.676-1.483 2.481 2.481 0 011.764-.636 2.559 2.559 0 011.644.503c.378.276.665.66.822 1.1l-.928.384a1.323 1.323 0 00-.491-.702 1.736 1.736 0 00-2.028 0 .984.984 0 00-.306.36.984.984 0 00-.105.462.92.92 0 00.384.755c.342.244.723.428 1.127.543.334.106.661.23.981.371.281.131.548.291.796.477.262.187.472.438.61.729.145.32.218.669.212 1.02a2.17 2.17 0 01-.239 1.034 1.925 1.925 0 01-.636.715 3.15 3.15 0 01-.849.411 3.18 3.18 0 01-.915.12v0zm6.895 0a2.8 2.8 0 01-2.134-.861 3.165 3.165 0 01-.823-2.266V9.275h1.021v5.035c-.026.55.149 1.092.491 1.524a2.042 2.042 0 002.851.066c.342-.432.517-.973.49-1.524V9.275h1.021v4.995a3.22 3.22 0 01-.795 2.266 2.797 2.797 0 01-2.122.861v0zm4.588-.172v-7.95h2.652a2.52 2.52 0 011.75.676 2.289 2.289 0 01.199 3.166 2.359 2.359 0 01-1.326.809l2.228 3.299h-1.207l-2.175-3.22h-1.14v3.22h-.981zm1.021-4.174h1.644a1.5 1.5 0 001.048-.397 1.35 1.35 0 00.328-.456 1.405 1.405 0 00-.275-1.505 1.325 1.325 0 00-1.035-.438h-1.71v2.796z" fill="#fff" stroke="#fff" stroke-width=".2" stroke-miterlimit="10"/></g><defs><linearGradient id="paint0_linear" x1="28.905" y1="11.541" x2="6.672" y2="33.79" gradientUnits="userSpaceOnUse"><stop stop-color="#00A0FF"/><stop offset=".01" stop-color="#00A1FF"/><stop offset=".26" stop-color="#00BEFF"/><stop offset=".51" stop-color="#00D2FF"/><stop offset=".76" stop-color="#00DFFF"/><stop offset="1" stop-color="#00E3FF"/></linearGradient><linearGradient id="paint1_linear" x1="44.856" y1="26.5" x2="12.782" y2="26.5" gradientUnits="userSpaceOnUse"><stop stop-color="#FFE000"/><stop offset=".41" stop-color="#FFBD00"/><stop offset=".78" stop-color="orange"/><stop offset="1" stop-color="#FF9C00"/></linearGradient><linearGradient id="paint2_linear" x1="32.923" y1="29.547" x2="2.766" y2="59.712" gradientUnits="userSpaceOnUse"><stop stop-color="#FF3A44"/><stop offset="1" stop-color="#C31162"/></linearGradient><linearGradient id="paint3_linear" x1="9.679" y1=".239" x2="23.141" y2="13.71" gradientUnits="userSpaceOnUse"><stop stop-color="#32A071"/><stop offset=".07" stop-color="#2DA771"/><stop offset=".48" stop-color="#15CF74"/><stop offset=".8" stop-color="#06E775"/><stop offset="1" stop-color="#00F076"/></linearGradient><clipPath id="clip0"><path fill="#fff" d="M0 0h179v53H0z"/></clipPath></defs></svg>