<svg width="16" height="16" fill="none" xmlns="http://www.w3.org/2000/svg"><path fill-rule="evenodd" clip-rule="evenodd" d="M0 8a8 8 0 1016 0A8 8 0 000 8zm6.357-6.806a6.996 6.996 0 00-3.549 2.11c.703.262 1.567.45 2.588.565.231-1.087.557-2.006.96-2.675zm.052 2.761C6.8 2.167 7.417 1 8 1s1.2 1.167 1.591 2.955C9.092 3.985 8.561 4 8 4a26.65 26.65 0 01-1.591-.045zm-1.19.9c-1.209-.14-2.225-.381-3.05-.728A6.959 6.959 0 001.07 7h3.95c.031-.752.099-1.472.198-2.144zM6.023 7a19.67 19.67 0 01.203-2.054C6.782 4.982 7.374 5 8 5c.626 0 1.218-.018 1.774-.054.098.636.169 1.327.203 2.054H6.023zM5 8H1c0 1.432.43 2.764 1.168 3.873.826-.347 1.842-.589 3.051-.729A21.61 21.61 0 015 8zm1.226 3.054A20.291 20.291 0 016 8h4c0 1.095-.084 2.132-.226 3.054A27.33 27.33 0 008 11c-.626 0-1.218.018-1.774.054zm-.83 1.077c-1.021.114-1.885.303-2.588.564a6.996 6.996 0 003.549 2.111c-.404-.669-.73-1.587-.96-2.675zm4.247 2.675a6.996 6.996 0 003.549-2.11c-.703-.262-1.566-.45-2.588-.565-.231 1.088-.557 2.006-.96 2.675zm-.052-2.761C9.2 13.833 8.583 15 8 15s-1.2-1.167-1.591-2.955C6.908 12.015 7.439 12 8 12c.562 0 1.092.015 1.591.045zm1.19-.9c1.209.14 2.225.381 3.05.728A6.967 6.967 0 0015 8h-4c0 1.116-.076 2.18-.22 3.144zM10.979 7h3.95a6.958 6.958 0 00-1.097-2.873c-.826.347-1.842.589-3.051.729.1.672.167 1.392.198 2.144zm-.375-3.13c1.022-.115 1.885-.304 2.588-.565a6.996 6.996 0 00-3.549-2.111c.404.669.73 1.588.96 2.675z" fill="#000"/></svg>