<svg width="16" height="16" fill="none" xmlns="http://www.w3.org/2000/svg"><path fill-rule="evenodd" clip-rule="evenodd" d="M12.794 9.993a1.499 1.499 0 00-1.61-.097l-1.503.837c-.687-.509-1.494-1.226-2.417-2.15-.907-.907-1.571-1.67-1.99-2.282l.833-1.479c.287-.51.252-1.14-.09-1.615L4.154.623A1.5 1.5 0 001.78.546L.343 2.289A1.502 1.502 0 00.074 3.71c.948 2.902 2.641 5.464 5.075 7.683 2.382 2.171 4.756 3.68 7.126 4.52.495.176 1.045.08 1.451-.253l1.724-1.412a1.502 1.502 0 00-.069-2.376l-2.587-1.88zm-6.972.66C3.514 8.55 1.917 6.133 1.025 3.4a.5.5 0 01.09-.474l1.437-1.743a.5.5 0 01.79.025l1.864 2.585a.5.5 0 01.03.538l-.982 1.743a.5.5 0 00.01.508c.448.727 1.211 1.626 2.293 2.71 1.077 1.076 2.01 1.89 2.805 2.443a.5.5 0 00.528.026l1.78-.991a.5.5 0 01.537.032l2.587 1.88a.5.5 0 01.023.791l-1.724 1.413a.5.5 0 01-.484.085c-2.235-.794-4.498-2.231-6.787-4.318z" fill="#000"/></svg>