<svg width="179" height="55" viewBox="0 0 179 55" fill="none" xmlns="http://www.w3.org/2000/svg">
<path d="M164.746 5.66797e-05H14.2625C13.714 5.66797e-05 13.172 5.66798e-05 12.6249 0.00280668C12.167 0.00555668 11.7127 0.0135454 11.2503 0.0202692C10.2459 0.0311342 9.24379 0.112362 8.25278 0.263245C7.26316 0.417414 6.30454 0.708066 5.40934 1.12537C4.51523 1.54621 3.69827 2.09304 2.98807 2.74603C2.27415 3.39718 1.67904 4.14983 1.22563 4.97503C0.770964 5.79858 0.455698 6.6811 0.290719 7.59209C0.124172 8.50194 0.0345518 9.42227 0.0226622 10.3448C0.00878066 10.7664 0.00731473 11.1894 0 11.611V43.3931C0.00731473 43.8201 0.00878066 44.2337 0.0226622 44.6607C0.0345555 45.5833 0.124176 46.5036 0.290719 47.4134C0.455242 48.3249 0.770527 49.2079 1.22563 50.0318C1.67884 50.8543 2.27403 51.6039 2.98807 52.2514C3.69557 52.9073 4.51307 53.4545 5.40934 53.8721C6.30453 54.2906 7.26305 54.583 8.25278 54.7395C9.24396 54.8892 10.2459 54.9704 11.2503 54.9826C11.7127 54.9919 12.167 54.9973 12.6249 54.9973C13.172 55.0001 13.714 55.0001 14.2625 55.0001H164.746C165.283 55.0001 165.829 55.0001 166.367 54.9973C166.823 54.9973 167.29 54.9919 167.746 54.9826C168.749 54.9711 169.749 54.8898 170.738 54.7395C171.731 54.5819 172.693 54.2895 173.592 53.8721C174.488 53.4543 175.304 52.9071 176.011 52.2514C176.723 51.6014 177.32 50.8523 177.779 50.0318C178.23 49.2073 178.543 48.3244 178.705 47.4134C178.872 46.5034 178.964 45.5834 178.982 44.6607C178.988 44.2337 178.988 43.8201 178.988 43.3931C179 42.8936 179 42.3968 179 41.8892V13.1122C179 12.6087 179 12.1092 178.988 11.611C178.988 11.1894 178.988 10.7664 178.982 10.3448C178.964 9.42214 178.872 8.50201 178.705 7.59204C178.542 6.68157 178.23 5.79912 177.779 4.97497C176.855 3.32095 175.391 1.97459 173.592 1.12525C172.693 0.708962 171.731 0.418387 170.738 0.263122C169.749 0.111573 168.749 0.0303174 167.746 0.0200767C167.29 0.0133667 166.823 0.00530918 166.367 0.00262793C165.829 -0.00012207 165.283 -0.00012207 164.746 -0.00012207V5.66797e-05Z" fill="#FAFBFC"/>
<path d="M12.6322 53.7969C12.1765 53.7969 11.7317 53.7915 11.2796 53.7822C10.3428 53.7709 9.40829 53.696 8.4836 53.5579C7.62137 53.4214 6.78611 53.1675 6.00536 52.8045C5.23176 52.4446 4.52619 51.9726 3.91565 51.4067C3.29628 50.8475 2.78062 50.1988 2.38912 49.4865C1.9933 48.7696 1.71937 48.0011 1.57687 47.2079C1.42298 46.3555 1.33972 45.4937 1.32781 44.6298C1.31832 44.3398 1.30591 43.3742 1.30591 43.3742V11.611C1.30591 11.611 1.31913 10.6603 1.32788 10.381C1.33929 9.51841 1.42206 8.6579 1.57549 7.80688C1.71825 7.01147 1.9924 6.24078 2.38843 5.52149C2.77849 4.80967 3.29129 4.16056 3.90693 3.59931C4.52188 3.03273 5.22972 2.55833 6.00463 2.19341C6.78358 1.83163 7.61727 1.57951 8.47775 1.4455C9.40548 1.30602 10.3433 1.23062 11.2832 1.21991L12.633 1.20312H166.36L167.726 1.22059C168.657 1.23076 169.586 1.30549 170.505 1.44415C171.375 1.57984 172.217 1.83372 173.005 2.19744C174.557 2.93286 175.821 4.09635 176.617 5.52485C177.007 6.23917 177.277 7.00357 177.418 7.79211C177.573 8.65011 177.66 9.51739 177.678 10.387C177.682 10.7764 177.682 11.1947 177.682 11.611C177.694 12.1266 177.694 12.6174 177.694 13.1122V41.8891C177.694 42.3886 177.694 42.8761 177.682 43.3675C177.682 43.8147 177.682 44.2243 177.676 44.6458C177.659 45.5 177.574 46.3518 177.421 47.1944C177.281 47.9934 177.009 48.7678 176.613 49.4906C176.219 50.1952 175.706 50.8382 175.094 51.396C174.483 51.9649 173.776 52.4397 173.001 52.8019C172.215 53.1677 171.374 53.4225 170.505 53.5579C169.581 53.6967 168.646 53.7717 167.709 53.7822C167.271 53.7915 166.813 53.7969 166.367 53.7969L164.746 53.7996L12.6322 53.7969Z" fill="black"/>
<path d="M37.0506 27.9134C37.0667 26.7658 37.3984 25.6405 38.0147 24.6423C38.631 23.6441 39.512 22.8055 40.5757 22.2044C39.9 21.3173 39.0085 20.5872 37.9722 20.0722C36.9358 19.5572 35.7831 19.2714 34.6055 19.2375C32.0936 18.9952 29.6584 20.6192 28.3784 20.6192C27.0736 20.6192 25.1028 19.2616 22.9806 19.3017C21.6079 19.3425 20.2701 19.7094 19.0975 20.3668C17.925 21.0241 16.9576 21.9494 16.2898 23.0526C13.3968 27.6566 15.5547 34.4231 18.326 38.1447C19.7125 39.967 21.3329 42.0027 23.4532 41.9305C25.528 41.8514 26.3029 40.7143 28.8074 40.7143C31.2887 40.7143 32.0157 41.9305 34.1791 41.8846C36.4055 41.8514 37.8082 40.0541 39.1461 38.2145C40.1423 36.916 40.9088 35.4809 41.4174 33.9623C40.1239 33.4594 39.0201 32.6177 38.2436 31.542C37.467 30.4664 37.0521 29.2044 37.0506 27.9134V27.9134Z" fill="white"/>
<path d="M32.9645 16.79C34.1785 15.4504 34.7765 13.7287 34.6317 11.9904C32.7771 12.1694 31.0639 12.9842 29.8336 14.2723C29.2321 14.9016 28.7714 15.6337 28.4778 16.4268C28.1842 17.2198 28.0636 18.0583 28.1228 18.8942C29.0504 18.903 29.9681 18.7182 30.8068 18.3537C31.6455 17.9892 32.3832 17.4545 32.9645 16.79Z" fill="white"/>
<path d="M63.278 37.3171H56.1975L54.4972 41.9322H51.4982L58.2047 24.8574H61.3205L68.0271 41.9322H64.9769L63.278 37.3171ZM56.9309 35.1874H62.5433L59.7766 27.6974H59.6991L56.9309 35.1874Z" fill="white"/>
<path d="M82.5108 35.7084C82.5108 39.5769 80.2583 42.0624 76.859 42.0624C75.9979 42.1038 75.1415 41.9214 74.3879 41.5362C73.6343 41.1511 73.014 40.5786 72.5979 39.8844H72.5336V46.0504H69.7537V29.4833H72.4445V31.5538H72.4956C72.9308 30.8629 73.5617 30.2934 74.321 29.9059C75.0804 29.5183 75.9398 29.3273 76.8079 29.353C80.2451 29.353 82.5108 31.8506 82.5108 35.7084ZM79.6535 35.7084C79.6535 33.188 78.2365 31.531 76.0746 31.531C73.9506 31.531 72.5219 33.2229 72.5219 35.7084C72.5219 38.2167 73.9506 39.8965 76.0746 39.8965C78.2365 39.8965 79.6535 38.2516 79.6535 35.7084Z" fill="white"/>
<path d="M97.4168 35.7085C97.4168 39.577 95.1643 42.0625 91.765 42.0625C90.9039 42.1039 90.0476 41.9215 89.294 41.5364C88.5403 41.1512 87.92 40.5787 87.5039 39.8845H87.4396V46.0505H84.6597V29.4834H87.3504V31.5539H87.4016C87.8368 30.863 88.4676 30.2935 89.227 29.906C89.9863 29.5185 90.8458 29.3274 91.7139 29.3531C95.1511 29.3531 97.4168 31.8507 97.4168 35.7085ZM94.5595 35.7085C94.5595 33.1881 93.1425 31.5311 90.9806 31.5311C88.8566 31.5311 87.4279 33.223 87.4279 35.7085C87.4279 38.2168 88.8566 39.8966 90.9806 39.8966C93.1426 39.8966 94.5595 38.2517 94.5595 35.7085H94.5595Z" fill="white"/>
<path d="M107.268 37.1748C107.474 38.868 109.264 39.9797 111.709 39.9797C114.052 39.9797 115.738 38.8679 115.738 37.3412C115.738 36.0159 114.721 35.2223 112.314 34.6785L109.907 34.1454C106.496 33.3881 104.912 31.9218 104.912 29.5424C104.912 26.5963 107.705 24.5728 111.671 24.5728C115.596 24.5728 118.287 26.5963 118.378 29.5424H115.572C115.404 27.8384 113.871 26.8098 111.632 26.8098C109.392 26.8098 107.86 27.8505 107.86 29.3651C107.86 30.5723 108.839 31.2826 111.233 31.8264L113.28 32.2883C117.091 33.1168 118.674 34.524 118.674 37.0216C118.674 40.216 115.906 42.2167 111.503 42.2167C107.384 42.2167 104.602 40.263 104.423 37.1746L107.268 37.1748Z" fill="white"/>
<path d="M124.674 26.5372V29.4833H127.249V31.5068H124.674V38.3698C124.674 39.4359 125.189 39.9327 126.322 39.9327C126.627 39.9278 126.933 39.9081 127.236 39.8736V41.8851C126.727 41.9725 126.21 42.0121 125.692 42.0033C122.95 42.0033 121.881 41.0566 121.881 38.6423V31.5068H119.912V29.4833H121.881V26.5372H124.674Z" fill="white"/>
<path d="M128.741 35.7085C128.741 31.7916 131.25 29.3303 135.164 29.3303C139.09 29.3303 141.588 31.7916 141.588 35.7085C141.588 39.6361 139.104 42.0867 135.164 42.0867C131.225 42.0867 128.741 39.6361 128.741 35.7085ZM138.756 35.7085C138.756 33.0216 137.416 31.4358 135.164 31.4358C132.911 31.4358 131.573 33.0337 131.573 35.7085C131.573 38.4061 132.911 39.9799 135.164 39.9799C137.416 39.9799 138.756 38.4061 138.756 35.7085H138.756Z" fill="white"/>
<path d="M143.88 29.4834H146.532V31.6023H146.596C146.775 30.9405 147.197 30.3557 147.79 29.9461C148.384 29.5365 149.112 29.3271 149.853 29.3531C150.174 29.3521 150.493 29.3841 150.806 29.4485V31.8386C150.402 31.725 149.98 31.6728 149.557 31.6842C149.153 31.6691 148.75 31.7346 148.377 31.876C148.003 32.0175 147.667 32.2316 147.392 32.5037C147.117 32.7758 146.909 33.0995 146.782 33.4524C146.656 33.8053 146.614 34.1792 146.66 34.5483V41.9322H143.88L143.88 29.4834Z" fill="white"/>
<path d="M163.623 38.2758C163.249 40.5356 160.855 42.0865 157.792 42.0865C153.852 42.0865 151.406 39.6601 151.406 35.7675C151.406 31.8627 153.865 29.3302 157.675 29.3302C161.422 29.3302 163.778 31.6962 163.778 35.4707V36.3462H154.213V36.5006C154.168 36.9588 154.231 37.4203 154.396 37.8546C154.56 38.2889 154.824 38.6859 155.168 39.0194C155.513 39.3529 155.931 39.6152 156.394 39.7889C156.858 39.9626 157.356 40.0436 157.856 40.0267C158.513 40.0833 159.172 39.9434 159.735 39.628C160.299 39.3125 160.737 38.8382 160.983 38.2757L163.623 38.2758ZM154.226 34.5603H160.996C161.021 34.1484 160.954 33.7361 160.797 33.3495C160.64 32.9628 160.398 32.61 160.087 32.3134C159.775 32.0167 159.399 31.7825 158.984 31.6254C158.569 31.4684 158.123 31.3919 157.675 31.4008C157.222 31.3983 156.773 31.4782 156.354 31.636C155.935 31.7938 155.555 32.0262 155.234 32.32C154.913 32.6137 154.659 32.9629 154.486 33.3475C154.313 33.732 154.225 34.1442 154.226 34.5603V34.5603Z" fill="white"/>
<path d="M56.5825 12.005C57.1653 11.9666 57.7501 12.0475 58.2948 12.242C58.8394 12.4365 59.3303 12.7396 59.7321 13.1296C60.1339 13.5196 60.4365 13.9867 60.6181 14.4972C60.7997 15.0077 60.8558 15.5489 60.7823 16.0817C60.7823 18.7028 59.2411 20.2094 56.5825 20.2094H53.3585V12.005H56.5825ZM54.7448 19.0492H56.4276C56.8441 19.072 57.2609 19.0093 57.6476 18.8654C58.0343 18.7216 58.3813 18.5003 58.6633 18.2176C58.9452 17.935 59.1551 17.5981 59.2775 17.2315C59.4 16.8649 59.4319 16.4778 59.3711 16.0984C59.4275 15.7205 59.3923 15.3358 59.268 14.9719C59.1436 14.608 58.9333 14.2739 58.652 13.9935C58.3707 13.7131 58.0253 13.4933 57.6408 13.35C57.2562 13.2067 56.842 13.1433 56.4276 13.1645H54.7448V19.0492Z" fill="white"/>
<path d="M62.3483 17.111C62.3059 16.7041 62.3566 16.2935 62.4969 15.9057C62.6373 15.5178 62.8643 15.1613 63.1634 14.8588C63.4625 14.5563 63.827 14.3146 64.2337 14.1492C64.6403 13.9839 65.0801 13.8984 65.5248 13.8984C65.9694 13.8984 66.4092 13.9839 66.8159 14.1492C67.2225 14.3146 67.5871 14.5563 67.8861 14.8588C68.1852 15.1613 68.4122 15.5178 68.5526 15.9057C68.693 16.2935 68.7436 16.7041 68.7013 17.111C68.7444 17.5183 68.6944 17.9294 68.5544 18.3178C68.4144 18.7063 68.1875 19.0636 67.8884 19.3666C67.5892 19.6697 67.2244 19.9119 66.8173 20.0776C66.4102 20.2433 65.97 20.329 65.5248 20.329C65.0796 20.329 64.6393 20.2433 64.2322 20.0776C63.8252 19.9119 63.4604 19.6697 63.1612 19.3666C62.862 19.0636 62.6352 18.7063 62.4952 18.3178C62.3552 17.9294 62.3051 17.5183 62.3483 17.111V17.111ZM67.334 17.111C67.334 15.7689 66.6781 14.984 65.527 14.984C64.3715 14.984 63.7215 15.7689 63.7215 17.111C63.7215 18.4638 64.3715 19.2426 65.527 19.2426C66.6781 19.2426 67.334 18.4584 67.334 17.111H67.334Z" fill="white"/>
<path d="M77.1461 20.2094H75.7671L74.375 15.6493H74.2698L72.8835 20.2094H71.5177L69.661 14.0178H71.0093L72.2159 18.7423H72.3153L73.7001 14.0178H74.9754L76.3602 18.7423H76.4654L77.6662 14.0178H78.9955L77.1461 20.2094Z" fill="white"/>
<path d="M80.557 14.0178H81.8367V15.0014H81.936C82.1045 14.6481 82.3887 14.352 82.749 14.1543C83.1094 13.9565 83.5278 13.8671 83.9461 13.8983C84.2738 13.8757 84.6029 13.9211 84.9089 14.0312C85.215 14.1413 85.4902 14.3134 85.7141 14.5345C85.938 14.7557 86.1049 15.0203 86.2024 15.3088C86.2999 15.5973 86.3256 15.9023 86.2775 16.2012V20.2093H84.9482V16.508C84.9482 15.513 84.4778 15.0182 83.4947 15.0182C83.2722 15.0087 83.05 15.0435 82.8435 15.1202C82.637 15.197 82.451 15.3139 82.2982 15.4629C82.1455 15.612 82.0296 15.7896 81.9585 15.9837C81.8874 16.1777 81.8628 16.3836 81.8863 16.5872V20.2094H80.557L80.557 14.0178Z" fill="white"/>
<path d="M88.3956 11.6008H89.725V20.2093H88.3956V11.6008Z" fill="white"/>
<path d="M91.5729 17.1109C91.5305 16.704 91.5812 16.2935 91.7216 15.9056C91.862 15.5178 92.0891 15.1612 92.3882 14.8587C92.6873 14.5562 93.0519 14.3145 93.4586 14.1491C93.8652 13.9837 94.305 13.8983 94.7497 13.8983C95.1944 13.8983 95.6342 13.9837 96.0409 14.1491C96.4476 14.3145 96.8122 14.5562 97.1113 14.8587C97.4104 15.1612 97.6374 15.5178 97.7778 15.9056C97.9182 16.2935 97.9689 16.704 97.9266 17.1109C97.9697 17.5183 97.9196 17.9294 97.7796 18.3178C97.6395 18.7063 97.4126 19.0636 97.1134 19.3666C96.8142 19.6697 96.4494 19.9119 96.0423 20.0776C95.6352 20.2433 95.1949 20.3289 94.7497 20.3289C94.3045 20.3289 93.8642 20.2433 93.4571 20.0776C93.0501 19.9119 92.6852 19.6697 92.386 19.3666C92.0868 19.0636 91.8599 18.7063 91.7199 18.3178C91.5798 17.9294 91.5298 17.5183 91.5729 17.1109V17.1109ZM96.5585 17.1109C96.5585 15.7689 95.9026 14.984 94.7515 14.984C93.5961 14.984 92.9461 15.7689 92.9461 17.111C92.9461 18.4638 93.5961 19.2426 94.7515 19.2426C95.9026 19.2426 96.5585 18.4584 96.5585 17.1109H96.5585Z" fill="white"/>
<path d="M99.326 18.4584C99.326 17.3439 100.229 16.7013 101.831 16.61L103.656 16.5134V15.9789C103.656 15.325 103.185 14.9557 102.277 14.9557C101.535 14.9557 101.021 15.2062 100.873 15.6439H99.5861C99.7219 14.5804 100.81 13.8983 102.338 13.8983C104.027 13.8983 104.979 14.6711 104.979 15.9789V20.2093H103.7V19.3392H103.594C103.381 19.6513 103.081 19.9058 102.726 20.0766C102.37 20.2474 101.972 20.3284 101.571 20.3114C101.289 20.3384 101.003 20.3107 100.732 20.23C100.462 20.1492 100.213 20.0173 100.001 19.8428C99.7899 19.6682 99.6205 19.4548 99.5042 19.2163C99.3878 18.9779 99.3272 18.7197 99.326 18.4584V18.4584ZM103.656 17.9293V17.4117L102.011 17.5084C101.083 17.5654 100.663 17.8555 100.663 18.4013C100.663 18.9585 101.189 19.2828 101.912 19.2828C102.124 19.3025 102.338 19.2829 102.541 19.225C102.744 19.1671 102.933 19.0722 103.096 18.9459C103.259 18.8197 103.392 18.6646 103.488 18.4899C103.584 18.3153 103.641 18.1246 103.656 17.9293V17.9293Z" fill="white"/>
<path d="M106.726 17.1109C106.726 15.1545 107.821 13.9151 109.522 13.9151C109.943 13.8973 110.361 13.99 110.727 14.1823C111.093 14.3747 111.391 14.6588 111.588 15.0014H111.687V11.6008H113.017V20.2093H111.743V19.2311H111.638C111.426 19.5714 111.117 19.852 110.744 20.0424C110.371 20.2328 109.949 20.3258 109.522 20.3114C107.809 20.3115 106.726 19.072 106.726 17.1109ZM108.1 17.1109C108.1 18.4242 108.773 19.2144 109.899 19.2144C111.02 19.2144 111.712 18.4128 111.712 17.1163C111.712 15.8259 111.012 15.0128 109.899 15.0128C108.78 15.0128 108.1 15.8084 108.1 17.1109H108.1Z" fill="white"/>
<path d="M118.516 17.111C118.474 16.7041 118.525 16.2935 118.665 15.9057C118.806 15.5178 119.033 15.1613 119.332 14.8588C119.631 14.5563 119.995 14.3146 120.402 14.1492C120.809 13.9839 121.248 13.8984 121.693 13.8984C122.138 13.8984 122.577 13.9839 122.984 14.1492C123.391 14.3146 123.755 14.5563 124.054 14.8588C124.353 15.1613 124.58 15.5178 124.721 15.9057C124.861 16.2935 124.912 16.7041 124.869 17.111C124.913 17.5183 124.863 17.9294 124.723 18.3178C124.583 18.7063 124.356 19.0636 124.057 19.3666C123.757 19.6697 123.393 19.9119 122.986 20.0776C122.578 20.2433 122.138 20.329 121.693 20.329C121.248 20.329 120.808 20.2433 120.4 20.0776C119.993 19.9119 119.629 19.6697 119.329 19.3666C119.03 19.0636 118.803 18.7063 118.663 18.3178C118.523 17.9294 118.473 17.5183 118.516 17.111V17.111ZM123.502 17.111C123.502 15.7689 122.846 14.984 121.695 14.984C120.54 14.984 119.89 15.7689 119.89 17.111C119.89 18.4638 120.54 19.2426 121.695 19.2426C122.846 19.2426 123.502 18.4584 123.502 17.111Z" fill="white"/>
<path d="M126.653 14.0178H127.933V15.0014H128.032C128.201 14.6481 128.485 14.352 128.845 14.1543C129.206 13.9565 129.624 13.8671 130.042 13.8983C130.37 13.8757 130.699 13.9211 131.005 14.0312C131.311 14.1413 131.586 14.3134 131.81 14.5345C132.034 14.7557 132.201 15.0203 132.299 15.3088C132.396 15.5973 132.422 15.9023 132.374 16.2012V20.2093H131.044V16.508C131.044 15.513 130.574 15.0182 129.591 15.0182C129.368 15.0087 129.146 15.0435 128.94 15.1202C128.733 15.197 128.547 15.3139 128.394 15.4629C128.242 15.612 128.126 15.7896 128.055 15.9837C127.984 16.1777 127.959 16.3836 127.983 16.5872V20.2094H126.653V14.0178Z" fill="white"/>
<path d="M139.885 12.4763V14.046H141.344V15.0753H139.885V18.259C139.885 18.9075 140.176 19.1915 140.838 19.1915C141.007 19.191 141.176 19.1816 141.344 19.1633V20.1811C141.106 20.2204 140.864 20.2413 140.621 20.2436C139.143 20.2436 138.554 19.7656 138.554 18.5718V15.0752H137.485V14.046H138.554V12.4763H139.885Z" fill="white"/>
<path d="M143.16 11.6008H144.478V15.0128H144.583C144.76 14.6563 145.052 14.3584 145.419 14.16C145.787 13.9615 146.212 13.872 146.637 13.9037C146.963 13.8874 147.289 13.9374 147.591 14.0502C147.894 14.163 148.166 14.3358 148.387 14.5563C148.609 14.7768 148.775 15.0395 148.873 15.3256C148.972 15.6118 149 15.9145 148.956 16.2119V20.2094H147.626V16.5134C147.626 15.5244 147.125 15.0235 146.186 15.0235C145.957 15.0063 145.727 15.0352 145.512 15.1081C145.297 15.1811 145.102 15.2964 144.94 15.4459C144.779 15.5954 144.655 15.7755 144.577 15.9737C144.499 16.1719 144.469 16.3834 144.49 16.5932V20.2093H143.16L143.16 11.6008Z" fill="white"/>
<path d="M156.708 18.5376C156.527 19.1034 156.136 19.5929 155.602 19.9204C155.069 20.2478 154.427 20.3924 153.789 20.3288C153.345 20.3396 152.904 20.2615 152.497 20.0999C152.089 19.9383 151.724 19.6971 151.428 19.393C151.132 19.0889 150.912 18.7293 150.782 18.339C150.652 17.9488 150.617 17.5373 150.677 17.133C150.618 16.7276 150.655 16.3152 150.784 15.9237C150.913 15.5323 151.133 15.171 151.427 14.8643C151.722 14.5576 152.084 14.3126 152.491 14.1459C152.897 13.9793 153.338 13.8948 153.783 13.8983C155.657 13.8983 156.788 15.0753 156.788 17.0195V17.4459H152.032V17.5144C152.011 17.7416 152.042 17.9703 152.123 18.1858C152.204 18.4014 152.333 18.599 152.502 18.766C152.671 18.933 152.876 19.0657 153.104 19.1556C153.331 19.2455 153.577 19.2907 153.825 19.2881C154.143 19.3232 154.466 19.2706 154.751 19.1369C155.036 19.0033 155.272 18.7946 155.428 18.5375L156.708 18.5376ZM152.032 16.5422H155.434C155.45 16.3344 155.42 16.1257 155.344 15.9295C155.267 15.7332 155.147 15.5538 154.991 15.4028C154.835 15.2517 154.646 15.1323 154.437 15.0523C154.228 14.9724 154.002 14.9335 153.776 14.9383C153.546 14.9356 153.318 14.9753 153.105 15.055C152.892 15.1346 152.698 15.2527 152.536 15.4022C152.373 15.5517 152.245 15.7295 152.158 15.9253C152.072 16.1211 152.029 16.3309 152.032 16.5422H152.032Z" fill="white"/>
</svg>
