<svg width="32" height="32" viewBox="0 0 32 32" fill="none" xmlns="http://www.w3.org/2000/svg">
<rect width="32" height="32" rx="16" fill="white" fill-opacity="0.5"/>
<path d="M16.5461 24H8.88308C8.39522 24 8 23.6045 8 23.1169V8.88307C8 8.39528 8.39529 8 8.88308 8H23.117C23.6047 8 24 8.39528 24 8.88307V23.1169C24 23.6046 23.6046 24 23.117 24H19.0398V17.8039H21.1195L21.4309 15.3892H19.0398V13.8475C19.0398 13.1484 19.2339 12.672 20.2364 12.672L21.5151 12.6714V10.5117C21.294 10.4823 20.5349 10.4165 19.6519 10.4165C17.8083 10.4165 16.5461 11.5418 16.5461 13.6084V15.3892H14.461V17.8039H16.5461V24V24Z" fill="white"/>
</svg>
