<svg width="32" height="32" viewBox="0 0 32 32" fill="none" xmlns="http://www.w3.org/2000/svg">
<rect width="32" height="32" rx="16" fill="white" fill-opacity="0.5"/>
<path d="M24 10.5982C23.4121 10.8692 22.7791 11.0525 22.1152 11.1345C22.7932 10.7132 23.3135 10.0453 23.5586 9.24962C22.9238 9.63965 22.2222 9.9234 21.4728 10.0755C20.8755 9.41343 20.0218 9 19.0771 9C17.2655 9 15.7957 10.526 15.7957 12.4079C15.7957 12.6751 15.8239 12.9345 15.8803 13.1841C13.1521 13.0417 10.7338 11.6863 9.11381 9.6221C8.83113 10.1272 8.6696 10.7132 8.6696 11.3373C8.6696 12.5191 9.24905 13.5624 10.13 14.1738C9.59277 14.1572 9.08564 14.0022 8.64237 13.7486V13.7906C8.64237 15.4424 9.77402 16.8202 11.2766 17.1322C11.0015 17.2121 10.7113 17.2521 10.4117 17.2521C10.2004 17.2521 9.99378 17.2316 9.79374 17.1917C10.2117 18.5451 11.4231 19.5309 12.86 19.5572C11.7368 20.4718 10.3206 21.0169 8.78324 21.0169C8.5184 21.0169 8.25638 21.0013 8 20.9701C9.45284 21.9354 11.179 22.5 13.0319 22.5C19.0705 22.5 22.3715 17.3077 22.3715 12.8038C22.3715 12.6556 22.3687 12.5074 22.3631 12.3621C23.0045 11.8814 23.5614 11.2817 24 10.5982" fill="white"/>
</svg>
