<svg width="32" height="32" viewBox="0 0 32 32" fill="none" xmlns="http://www.w3.org/2000/svg">
<rect width="32" height="32" rx="16" fill="white" fill-opacity="0.5"/>
<mask id="mask0" mask-type="alpha" maskUnits="userSpaceOnUse" x="8" y="9" width="16" height="14">
<path fill-rule="evenodd" clip-rule="evenodd" d="M10.2656 12.182H10.2445C9.18615 12.182 8.5 11.481 8.5 10.5923C8.5 9.68637 9.20643 9 10.2859 9C11.3645 9 12.0278 9.68464 12.0489 10.5897C12.0489 11.4784 11.3645 12.182 10.2656 12.182ZM23.5001 22.5H20.1849V17.7542C20.1849 16.512 19.6663 15.664 18.526 15.664C17.6537 15.664 17.1687 16.2362 16.9429 16.7878C16.8684 16.9621 16.8697 17.1967 16.8711 17.4385V17.4386C16.8713 17.4714 16.8715 17.5043 16.8715 17.5372V22.5H13.5871C13.5871 22.5 13.6295 14.0933 13.5871 13.3291H16.8715V14.7684C17.0655 14.1391 18.115 13.241 19.7898 13.241C21.8676 13.241 23.5001 14.5601 23.5001 17.4007V22.5ZM11.8019 13.3291H8.87828V22.5H11.8019V13.3291Z" fill="white"/>
</mask>
<g mask="url(#mask0)">
<rect width="16" height="16" transform="translate(8 8)" fill="white"/>
<rect x="8" y="8" width="16" height="16" fill="white"/>
</g>
</svg>
