<svg width="203" height="66" viewBox="0 0 203 66" fill="none" xmlns="http://www.w3.org/2000/svg">
<g clip-path="url(#clip0)">
<path d="M25.1095 17.5873C29.1717 17.5873 32.4648 13.6503 32.4648 8.79365C32.4648 3.93705 29.1717 0 25.1095 0C21.0472 0 17.7542 3.93705 17.7542 8.79365C17.7542 13.6503 21.0472 17.5873 25.1095 17.5873Z" fill="#39B54A"/>
<path d="M18.3249 54.4763C16.9933 55.9048 13.6327 60.7302 13.6327 60.7302H38.0764C38.0764 60.7302 34.3353 55.7144 32.9087 54.1905C26.6313 47.4604 21.1782 51.4286 18.3249 54.4763Z" fill="#39B54A"/>
<path d="M24.3168 33.4921L16.8347 29.9365L24.9509 40.2222C25.0777 40.4127 25.4265 41.1746 26.0288 40.3175L34.8108 30.1587L27.3604 33.5238C26.4093 33.9365 25.2997 33.9365 24.3168 33.4921Z" fill="#39B54A"/>
<path d="M52.4699 16.4446C51.931 15.7462 50.9799 15.4922 50.1873 15.8414L25.9021 26.7938L2.69484 15.8414C1.90224 15.4604 0.951125 15.6827 0.412159 16.3811C-0.126807 17.0795 -0.126807 18.0319 0.412159 18.7303L19.5296 43.016L4.53366 62.9843C4.08981 63.5557 4.0264 64.3176 4.34344 64.9843C4.66048 65.6509 5.32626 66.0319 6.02375 66.0319H45.8755C46.6047 66.0319 47.2705 65.6192 47.5875 64.9525C47.9046 64.2858 47.8095 63.5239 47.3656 62.9525L31.5771 42.9525L52.3748 18.7938C52.9772 18.1271 53.0089 17.143 52.4699 16.4446ZM27.7092 41.6509C27.1068 42.3493 27.1068 43.3652 27.6458 44.0636L41.976 62.2224H9.82821L23.4292 44.1271C23.9364 43.4287 23.9364 42.4763 23.3975 41.8097L8.36983 22.7303L25.0778 30.6351C25.585 30.8573 26.1557 30.889 26.663 30.6351L43.9099 22.8255L27.7092 41.6509Z" fill="#39B54A"/>
<path d="M67.3708 48.4445C65.1832 46.254 64.0736 43.5556 64.0736 40.381C64.0736 37.2064 65.1832 34.5079 67.3708 32.2857C69.5584 30.0635 72.2532 28.9524 75.4236 28.9524C78.594 28.9524 81.2571 30.0635 83.4764 32.2857C85.6957 34.5079 86.8053 37.2064 86.8053 40.381C86.8053 43.5556 85.6957 46.2222 83.4764 48.4445C81.2571 50.6349 78.594 51.746 75.4236 51.746C72.2532 51.746 69.5901 50.6667 67.3708 48.4445ZM70.3193 35.2381C68.8926 36.6667 68.1951 38.381 68.1951 40.381C68.1951 42.381 68.8926 44.0953 70.3193 45.4921C71.7459 46.9206 73.4263 47.6191 75.4236 47.6191C77.4209 47.6191 79.133 46.9206 80.5596 45.4921C81.9863 44.0635 82.6838 42.381 82.6838 40.381C82.6838 38.381 81.9546 36.6667 80.5279 35.2381C79.1012 33.8095 77.3892 33.0794 75.4236 33.0794C73.458 33.0794 71.7459 33.8095 70.3193 35.2381Z" fill="black"/>
<path d="M103.608 44.1588C103.608 46.3176 102.943 48.1588 101.611 49.5874C100.279 51.0477 98.5357 51.7779 96.3799 51.7779C95.08 51.7779 93.9387 51.5874 92.8607 51.1747V58.2541C92.8607 58.4128 92.7973 58.5715 92.6388 58.7303C92.4803 58.889 92.3218 58.9525 92.1632 58.9525H89.5952C89.405 58.9525 89.2465 58.889 89.1197 58.7303C88.9929 58.5715 88.9294 58.4128 88.9294 58.2541V37.4922C88.9294 37.3017 88.9929 37.143 89.1197 37.016C89.2465 36.889 89.405 36.8255 89.5952 36.8255H90.7683C91.0853 36.8255 91.3072 37.0477 91.4658 37.5239L91.8462 38.6985C91.8779 38.635 91.9413 38.5715 92.0364 38.4763C92.1315 38.3811 92.3218 38.2223 92.6071 37.9684C92.9241 37.7144 93.2412 37.4922 93.5899 37.3017C93.9387 37.1112 94.3825 36.9525 94.9215 36.7938C95.4604 36.635 96.0311 36.5715 96.6018 36.5715C98.5991 36.5715 100.279 37.3017 101.579 38.7303C102.943 40.1271 103.608 41.9366 103.608 44.1588ZM92.8607 42.1271V47.3334C93.6533 47.8731 94.6678 48.1588 95.9043 48.1588C97.0456 48.1588 97.9333 47.7779 98.5674 46.9842C99.2015 46.1906 99.5185 45.2382 99.5185 44.1588C99.5185 43.0477 99.2015 42.1271 98.5991 41.3017C97.9968 40.508 97.1408 40.0953 96.0628 40.0953C95.2068 40.0953 94.5093 40.3176 93.9387 40.7303C93.4314 41.1747 93.0509 41.6192 92.8607 42.1271Z" fill="black"/>
<path d="M104.972 44.1271C104.972 42.0319 105.669 40.2223 107.064 38.7303C108.459 37.2382 110.203 36.5081 112.327 36.5081C114.229 36.5081 115.846 37.143 117.114 38.4128C118.382 39.6827 119.017 41.3017 119.017 43.27C119.017 43.6192 118.985 43.9366 118.953 44.2223C118.921 44.4128 118.858 44.5716 118.731 44.6985C118.604 44.8255 118.446 44.889 118.287 44.889H108.935C108.966 45.8096 109.315 46.6033 109.981 47.27C110.678 47.9366 111.534 48.2541 112.549 48.2541C113.754 48.2541 114.8 47.9049 115.688 47.1747C116.1 46.8255 116.417 46.8255 116.639 47.1747L117.875 48.8255C118.16 49.1747 118.161 49.4922 117.812 49.7779C116.258 51.1112 114.451 51.7779 112.39 51.7779C110.235 51.7779 108.459 51.0477 107.096 49.5557C105.669 48.0636 104.972 46.2541 104.972 44.1271ZM109.125 42.2858H115.022C114.99 41.5557 114.705 40.9525 114.198 40.4763C113.69 40.0001 113.024 39.7462 112.232 39.7462C111.376 39.7462 110.678 39.9684 110.108 40.4446C109.569 40.9525 109.252 41.5557 109.125 42.2858Z" fill="black"/>
<path d="M121.046 50.7303V37.4922C121.046 37.3017 121.109 37.143 121.236 37.016C121.363 36.889 121.521 36.8255 121.711 36.8255H122.916C123.201 36.8255 123.423 36.9842 123.518 37.27L124.057 38.635C125.326 37.2065 126.879 36.5081 128.75 36.5081C132.649 36.5081 134.583 38.7303 134.583 43.1747V50.7303C134.583 50.9208 134.52 51.0795 134.361 51.2065C134.203 51.3335 134.044 51.3969 133.886 51.3969H131.318C131.127 51.3969 130.969 51.3335 130.842 51.2065C130.715 51.0795 130.652 50.9208 130.652 50.7303V43.1747C130.652 41.143 129.796 40.0954 128.115 40.0954C126.53 40.0954 125.484 40.8573 124.945 42.3811V50.7303C124.945 51.016 124.882 51.1747 124.755 51.27C124.628 51.3652 124.374 51.3969 124.026 51.3969H121.743C121.585 51.3969 121.426 51.3335 121.267 51.2065C121.109 51.1112 121.046 50.9208 121.046 50.7303Z" fill="black"/>
<path d="M139.022 50.8253V33.0793H134.203C134.044 33.0793 133.886 33.0158 133.79 32.9206C133.664 32.7936 133.632 32.6666 133.632 32.5079V29.9047C133.632 29.7459 133.695 29.5872 133.79 29.492C133.917 29.365 134.044 29.3333 134.203 29.3333H147.994C148.152 29.3333 148.311 29.3967 148.406 29.492C148.533 29.619 148.564 29.7459 148.564 29.9047V32.5079C148.564 32.6666 148.501 32.8253 148.406 32.9206C148.279 33.0475 148.152 33.0793 147.994 33.0793H143.175V50.8253C143.175 50.9841 143.111 51.111 143.016 51.238C142.889 51.365 142.763 51.4285 142.604 51.4285H139.656C139.497 51.4285 139.37 51.365 139.244 51.238C139.117 51.111 139.022 50.9841 139.022 50.8253Z" fill="black"/>
<path d="M147.011 44.1271C147.011 42.0319 147.708 40.2223 149.103 38.7303C150.498 37.2382 152.242 36.5081 154.366 36.5081C156.269 36.5081 157.885 37.143 159.154 38.4128C160.422 39.6827 161.056 41.3017 161.056 43.27C161.056 43.6192 161.024 43.9366 160.992 44.2223C160.961 44.4128 160.897 44.5716 160.77 44.6985C160.644 44.8255 160.485 44.889 160.327 44.889H150.974C151.006 45.8096 151.354 46.6033 152.02 47.27C152.718 47.9366 153.574 48.2541 154.588 48.2541C155.793 48.2541 156.839 47.9049 157.727 47.1747C158.139 46.8255 158.456 46.8255 158.678 47.1747L159.914 48.8255C160.2 49.1747 160.2 49.4922 159.851 49.7779C158.298 51.1112 156.49 51.7779 154.43 51.7779C152.274 51.7779 150.498 51.0477 149.135 49.5557C147.772 48.0636 147.011 46.2541 147.011 44.1271ZM151.164 42.2858H157.061C157.029 41.5557 156.744 40.9525 156.237 40.4763C155.73 40.0001 155.064 39.7462 154.271 39.7462C153.415 39.7462 152.718 39.9684 152.147 40.4446C151.608 40.9525 151.291 41.5557 151.164 42.2858Z" fill="black"/>
<path d="M163.085 50.73V37.4919C163.085 37.3015 163.148 37.1427 163.275 37.0158C163.402 36.8888 163.56 36.8253 163.751 36.8253H164.892C165.241 36.8253 165.431 36.9523 165.494 37.238L166.033 38.6348C167.27 37.2062 168.728 36.5078 170.472 36.5078C171.486 36.5078 172.311 36.6665 172.913 37.0158C173.547 37.365 174.181 37.9364 174.815 38.6983C176.21 37.238 177.795 36.4761 179.507 36.4761C181.663 36.4761 183.185 37.0792 184.009 38.2539C184.865 39.4602 185.278 41.111 185.278 43.238V50.6983C185.278 50.8888 185.214 51.0475 185.087 51.1745C184.961 51.3015 184.77 51.365 184.58 51.365H182.044C181.854 51.365 181.695 51.3015 181.568 51.1745C181.441 51.0475 181.378 50.8888 181.378 50.6983V43.1745C181.378 41.1427 180.522 40.0951 178.842 40.0951C178.208 40.0951 177.669 40.2221 177.225 40.4761C176.781 40.73 176.464 40.984 176.337 41.238L176.147 41.6189C176.179 42.0951 176.21 42.5713 176.21 43.0158V50.73C176.21 50.9205 176.147 51.0792 175.988 51.2062C175.83 51.3332 175.671 51.3967 175.513 51.3967H172.913C172.691 51.3967 172.533 51.3332 172.406 51.2062C172.279 51.0792 172.216 50.9205 172.216 50.73V43.1745C172.216 42.1586 172.025 41.3967 171.677 40.8888C171.328 40.3808 170.694 40.1269 169.806 40.1269C168.443 40.1269 167.523 40.8888 166.984 42.4126V50.7618C166.984 50.9523 166.921 51.111 166.762 51.238C166.604 51.365 166.445 51.4284 166.287 51.4284H163.719C163.56 51.4284 163.402 51.365 163.243 51.238C163.148 51.111 163.085 50.9205 163.085 50.73Z" fill="black"/>
<path d="M203 44.1588C203 46.3176 202.334 48.1588 201.003 49.5874C199.671 51.0477 197.927 51.7779 195.772 51.7779C194.472 51.7779 193.33 51.5874 192.252 51.1747V58.2541C192.252 58.4128 192.189 58.5715 192.031 58.7303C191.872 58.889 191.713 58.9525 191.555 58.9525H188.987C188.797 58.9525 188.638 58.889 188.511 58.7303C188.385 58.5715 188.321 58.4128 188.321 58.2541V37.4922C188.321 37.3017 188.385 37.143 188.511 37.016C188.638 36.889 188.797 36.8255 188.987 36.8255H190.16C190.477 36.8255 190.699 37.0477 190.857 37.5239L191.238 38.6985C191.27 38.635 191.333 38.5715 191.428 38.4763C191.523 38.3811 191.713 38.2223 191.999 37.9684C192.316 37.7144 192.633 37.4922 192.982 37.3017C193.33 37.1112 193.774 36.9525 194.313 36.7938C194.852 36.635 195.423 36.5715 195.994 36.5715C197.991 36.5715 199.671 37.3017 200.971 38.7303C202.334 40.1271 203 41.9366 203 44.1588ZM192.252 42.1271V47.3334C193.045 47.8731 194.06 48.1588 195.296 48.1588C196.437 48.1588 197.325 47.7779 197.959 46.9842C198.593 46.1906 198.91 45.2382 198.91 44.1588C198.91 43.0477 198.593 42.1271 197.991 41.3017C197.388 40.508 196.532 40.0953 195.455 40.0953C194.599 40.0953 193.901 40.3176 193.33 40.7303C192.791 41.1747 192.443 41.6192 192.252 42.1271Z" fill="black"/>
</g>
<defs>
<clipPath id="clip0">
<rect width="203" height="66" fill="white"/>
</clipPath>
</defs>
</svg>
