<svg width="179" height="53" viewBox="0 0 179 53" fill="none" xmlns="http://www.w3.org/2000/svg">
<g clip-path="url(#clip0)">
<path d="M172.37 0H6.62963C2.96819 0 0 2.96611 0 6.625V46.375C0 50.0339 2.96819 53 6.62963 53H172.37C176.032 53 179 50.0339 179 46.375V6.625C179 2.96611 176.032 0 172.37 0Z" fill="black"/>
<path d="M172.37 1.06C173.847 1.06 175.264 1.64631 176.308 2.68995C177.353 3.73359 177.939 5.14907 177.939 6.625V46.375C177.939 47.8509 177.353 49.2664 176.308 50.3101C175.264 51.3537 173.847 51.94 172.37 51.94H6.62963C5.15267 51.94 3.7362 51.3537 2.69183 50.3101C1.64746 49.2664 1.06074 47.8509 1.06074 46.375V6.625C1.06074 5.14907 1.64746 3.73359 2.69183 2.68995C3.7362 1.64631 5.15267 1.06 6.62963 1.06H172.37ZM172.37 0H6.62963C4.87134 0 3.18507 0.697989 1.94177 1.94042C0.698477 3.18285 0 4.86794 0 6.625V46.375C0 48.1321 0.698477 49.8172 1.94177 51.0596C3.18507 52.302 4.87134 53 6.62963 53H172.37C174.129 53 175.815 52.302 177.058 51.0596C178.302 49.8172 179 48.1321 179 46.375V6.625C179 4.86794 178.302 3.18285 177.058 1.94042C175.815 0.697989 174.129 0 172.37 0Z" fill="white"/>
<path d="M90.3485 28.8187C89.2352 28.8239 88.1483 29.1586 87.2251 29.7806C86.3019 30.4025 85.5837 31.2838 85.1613 32.3132C84.7388 33.3427 84.631 34.4741 84.8514 35.5647C85.0718 36.6553 85.6106 37.6562 86.3998 38.4411C87.1889 39.226 88.193 39.7597 89.2854 39.9748C90.3778 40.19 91.5095 40.0769 92.5376 39.65C93.5658 39.223 94.4443 38.5012 95.0624 37.5757C95.6804 36.6502 96.0102 35.5626 96.0103 34.4499C96.0211 33.7052 95.8818 32.9659 95.6008 32.2761C95.3197 31.5862 94.9027 30.96 94.3744 30.4345C93.8461 29.9091 93.2175 29.4953 92.5258 29.2177C91.8342 28.9401 91.0937 28.8044 90.3485 28.8187ZM90.3485 37.8684C89.6638 37.9163 88.9805 37.7572 88.3875 37.4118C87.7944 37.0665 87.319 36.5508 87.0232 35.9319C86.7273 35.3129 86.6245 34.6194 86.7283 33.9413C86.8321 33.2633 87.1377 32.6321 87.6052 32.1299C88.0727 31.6277 88.6806 31.2776 89.3498 31.1252C90.0191 30.9728 90.7187 31.0251 91.3578 31.2753C91.9969 31.5256 92.5459 31.9621 92.9334 32.5283C93.321 33.0945 93.5291 33.764 93.5308 34.4499C93.5521 34.8846 93.4862 35.319 93.3368 35.7278C93.1875 36.1365 92.9577 36.5113 92.6611 36.8299C92.3646 37.1485 92.0071 37.4045 91.61 37.5829C91.2128 37.7613 90.7839 37.8584 90.3485 37.8684ZM78.0042 28.8187C76.8902 28.8213 75.802 29.1538 74.8771 29.7742C73.9521 30.3945 73.2319 31.2749 72.8074 32.3041C72.3829 33.3333 72.2732 34.4652 72.4921 35.5566C72.7111 36.6481 73.2488 37.6503 74.0374 38.4365C74.8261 39.2227 75.8302 39.7577 76.9229 39.9739C78.0157 40.1901 79.1481 40.0779 80.177 39.6513C81.2059 39.2247 82.0852 38.5029 82.7038 37.5771C83.3225 36.6513 83.6526 35.5631 83.6526 34.4499C83.6634 33.7052 83.5242 32.9659 83.2431 32.2761C82.9621 31.5862 82.545 30.96 82.0168 30.4345C81.4885 29.9091 80.8598 29.4953 80.1682 29.2177C79.4766 28.9401 78.7361 28.8044 77.9909 28.8187H78.0042ZM78.0042 37.8684C77.3191 37.919 76.6347 37.7623 76.04 37.4187C75.4453 37.0751 74.9679 36.5605 74.6699 35.942C74.372 35.3235 74.2673 34.6297 74.3694 33.9508C74.4716 33.272 74.7759 32.6397 75.2427 32.1361C75.7095 31.6325 76.3172 31.281 76.9868 31.1274C77.6563 30.9738 78.3565 31.0252 78.9964 31.2748C79.6363 31.5245 80.1862 31.9609 80.5744 32.5272C80.9626 33.0935 81.1713 33.7635 81.1731 34.4499C81.1945 34.8846 81.1286 35.319 80.9792 35.7278C80.8298 36.1365 80.6001 36.5113 80.3035 36.8299C80.0069 37.1485 79.6495 37.4045 79.2523 37.5829C78.8552 37.7613 78.4262 37.8584 77.9909 37.8684H78.0042ZM63.2997 30.5544V32.9394H69.0277C68.9378 34.0628 68.4706 35.1228 67.7017 35.9472C67.1287 36.5305 66.4398 36.9875 65.6793 37.2887C64.9189 37.5899 64.1038 37.7287 63.2864 37.6962C61.5984 37.6962 59.9796 37.0261 58.7861 35.8334C57.5925 34.6407 56.922 33.023 56.922 31.3362C56.922 29.6494 57.5925 28.0317 58.7861 26.839C59.9796 25.6463 61.5984 24.9762 63.2864 24.9762C64.9011 24.9499 66.4604 25.5646 67.6222 26.6854L69.3061 25.0027C68.5218 24.209 67.586 23.5808 66.5543 23.1552C65.5226 22.7296 64.4158 22.5153 63.2997 22.5249C62.1209 22.4791 60.945 22.6715 59.8425 23.0907C58.7399 23.5098 57.7334 24.1471 56.8832 24.9643C56.033 25.7815 55.3566 26.7617 54.8946 27.8464C54.4326 28.931 54.1945 30.0977 54.1945 31.2766C54.1945 32.4554 54.4326 33.6221 54.8946 34.7067C55.3566 35.7914 56.033 36.7717 56.8832 37.5889C57.7334 38.406 58.7399 39.0433 59.8425 39.4625C60.945 39.8816 62.1209 40.074 63.2997 40.0282C64.4346 40.0794 65.5673 39.8872 66.6217 39.4644C67.676 39.0415 68.6275 38.398 69.4122 37.5769C70.8013 36.0518 71.543 34.0468 71.4806 31.9854C71.4849 31.4832 71.4405 30.9818 71.348 30.4882L63.2997 30.5544ZM123.377 32.4094C123.032 31.3928 122.385 30.5051 121.523 29.8639C120.661 29.2227 119.625 28.8582 118.551 28.8187C117.826 28.8173 117.108 28.9645 116.442 29.2513C115.776 29.5382 115.176 29.9585 114.678 30.4862C114.181 31.014 113.798 31.6381 113.552 32.3198C113.306 33.0016 113.202 33.7266 113.247 34.4499C113.231 35.1905 113.365 35.9267 113.64 36.6146C113.915 37.3025 114.325 37.9279 114.848 38.4535C115.37 38.9792 115.993 39.3942 116.679 39.6739C117.366 39.9535 118.102 40.092 118.843 40.0812C119.77 40.0862 120.684 39.8612 121.504 39.4265C122.323 38.9918 123.021 38.3609 123.536 37.5902L121.614 36.2652C121.327 36.7432 120.921 37.1386 120.435 37.4127C119.949 37.6868 119.401 37.8301 118.843 37.8287C118.268 37.8506 117.701 37.6992 117.214 37.3944C116.726 37.0896 116.342 36.6453 116.111 36.1194L123.656 33.0057L123.377 32.4094ZM115.687 34.2909C115.66 33.8811 115.715 33.47 115.849 33.0818C115.984 32.6936 116.194 32.336 116.468 32.0299C116.742 31.7239 117.075 31.4757 117.446 31.2996C117.817 31.1236 118.22 31.0234 118.631 31.0049C119.058 30.9768 119.485 31.0748 119.857 31.2868C120.23 31.4988 120.532 31.8154 120.726 32.1974L115.687 34.2909ZM109.561 39.7499H112.041V23.1874H109.561V39.7499ZM105.504 30.0774H105.411C105.037 29.6599 104.58 29.3261 104.068 29.0977C103.556 28.8694 103.002 28.7517 102.441 28.7524C100.992 28.8227 99.6256 29.4473 98.6249 30.4969C97.6243 31.5465 97.0661 32.9406 97.0661 34.3903C97.0661 35.84 97.6243 37.2341 98.6249 38.2837C99.6256 39.3333 100.992 39.958 102.441 40.0282C103.003 40.0376 103.56 39.9239 104.073 39.695C104.586 39.466 105.043 39.1275 105.411 38.7032H105.491V39.5114C105.491 41.6712 104.337 42.8239 102.481 42.8239C101.863 42.8095 101.263 42.6115 100.757 42.2552C100.252 41.8989 99.8642 41.4004 99.6433 40.8232L97.482 41.7242C97.8889 42.7131 98.5821 43.558 99.4727 44.1506C100.363 44.7432 101.411 45.0563 102.481 45.0499C105.385 45.0499 107.784 43.3407 107.784 39.1802V29.1499H105.504V30.0774ZM102.666 37.8684C101.811 37.7931 101.015 37.4004 100.435 36.7676C99.8554 36.1348 99.5337 35.3079 99.5337 34.4499C99.5337 33.5919 99.8554 32.7651 100.435 32.1323C101.015 31.4995 101.811 31.1068 102.666 31.0314C103.09 31.0532 103.506 31.1595 103.888 31.3442C104.27 31.5288 104.612 31.7881 104.892 32.1067C105.173 32.4252 105.387 32.7967 105.521 33.1991C105.656 33.6016 105.709 34.0268 105.676 34.4499C105.712 34.8749 105.662 35.3027 105.528 35.7076C105.394 36.1124 105.179 36.486 104.897 36.8055C104.614 37.1251 104.269 37.384 103.884 37.5667C103.498 37.7494 103.08 37.8521 102.653 37.8684H102.666ZM134.992 23.1874H129.066V39.7499H131.545V33.4694H135.006C135.712 33.5202 136.422 33.4249 137.09 33.1895C137.758 32.9541 138.371 32.5837 138.889 32.1014C139.408 31.619 139.822 31.0351 140.104 30.3859C140.387 29.7368 140.533 29.0364 140.533 28.3284C140.533 27.6205 140.387 26.9201 140.104 26.2709C139.822 25.6218 139.408 25.0379 138.889 24.5555C138.371 24.0732 137.758 23.7027 137.09 23.4674C136.422 23.232 135.712 23.1367 135.006 23.1874H134.992ZM134.992 31.1374H131.532V25.4929H135.046C135.8 25.4929 136.523 25.7924 137.057 26.3254C137.59 26.8584 137.89 27.5813 137.89 28.3351C137.89 29.0888 137.59 29.8117 137.057 30.3447C136.523 30.8778 135.8 31.1772 135.046 31.1772L134.992 31.1374ZM150.28 28.7524C149.378 28.6985 148.479 28.9093 147.695 29.3589C146.91 29.8085 146.274 30.4773 145.865 31.2832L148.066 32.1974C148.283 31.7978 148.612 31.4697 149.012 31.2533C149.412 31.0369 149.867 30.9414 150.32 30.9784C150.635 30.9417 150.954 30.968 151.258 31.0557C151.563 31.1435 151.847 31.2909 152.094 31.4895C152.34 31.6881 152.545 31.9338 152.696 32.2123C152.847 32.4908 152.941 32.7966 152.972 33.1117V33.2839C152.176 32.8626 151.288 32.6441 150.386 32.6479C148.013 32.6479 145.613 33.9729 145.613 36.3712C145.637 36.8826 145.762 37.384 145.983 37.846C146.204 38.3079 146.515 38.721 146.898 39.0607C147.281 39.4004 147.729 39.6598 148.214 39.8238C148.699 39.9877 149.213 40.0527 149.724 40.0149C150.348 40.0597 150.973 39.9358 151.533 39.656C152.093 39.3762 152.567 38.951 152.906 38.4249H152.985V39.7499H155.372V33.3767C155.372 30.4749 153.171 28.7922 150.347 28.7922L150.28 28.7524ZM149.975 37.8287C149.167 37.8287 148.04 37.4179 148.04 36.4242C148.04 35.0992 149.445 34.6619 150.691 34.6619C151.479 34.6425 152.258 34.8347 152.946 35.2184C152.863 35.9358 152.523 36.599 151.989 37.086C151.456 37.573 150.764 37.8508 150.042 37.8684L149.975 37.8287ZM164.07 29.1499L161.233 36.3314H161.153L158.209 29.1499H155.558L159.973 39.1934L157.454 44.7717H160.039L166.828 29.1499H164.07ZM141.781 39.7499H144.261V23.1874H141.781V39.7499Z" fill="white"/>
<path d="M13.8427 9.99046C13.4105 10.5087 13.1924 11.1721 13.2328 11.8455V41.1545C13.1924 41.8278 13.4105 42.4912 13.8427 43.0095L13.9355 43.1022L30.3637 26.6987V26.3145L13.9355 9.89771L13.8427 9.99046Z" fill="url(#paint0_linear)"/>
<path d="M35.8001 32.171L30.3638 26.6987V26.3145L35.8001 20.829L35.9194 20.8952L42.4297 24.592C44.286 25.6387 44.286 27.3612 42.4297 28.4212L35.9459 32.1047L35.8001 32.171Z" fill="url(#paint1_linear)"/>
<path d="M35.9591 32.0915L30.3637 26.5L13.8427 43.0095C14.221 43.3419 14.7037 43.5317 15.2073 43.5463C15.7108 43.5608 16.2037 43.399 16.6006 43.089L35.9724 32.0915" fill="url(#paint2_linear)"/>
<path d="M35.959 20.9085L16.5873 9.91103C16.1904 9.601 15.6975 9.43926 15.194 9.45378C14.6904 9.4683 14.2077 9.65815 13.8293 9.99053L30.3636 26.5L35.959 20.9085Z" fill="url(#paint3_linear)"/>
<path opacity="0.2" d="M35.8 31.9723L16.5873 42.9035C16.2045 43.1896 15.7394 43.3441 15.2614 43.3441C14.7834 43.3441 14.3183 43.1896 13.9355 42.9035L13.8427 42.9963L13.9355 43.089C14.3174 43.3771 14.7829 43.5329 15.2614 43.5329C15.7399 43.5329 16.2054 43.3771 16.5873 43.089L35.9591 32.0915L35.8 31.9723Z" fill="black"/>
<path opacity="0.12" d="M13.8427 42.824C13.4105 42.3058 13.1924 41.6424 13.2328 40.969V41.1678C13.1924 41.8411 13.4105 42.5045 13.8427 43.0228L13.9355 42.93L13.8427 42.824ZM42.4297 28.2225L35.8 31.9723L35.9194 32.0915L42.4297 28.408C42.7991 28.2346 43.1162 27.9669 43.349 27.6319C43.5818 27.2969 43.722 26.9065 43.7556 26.5C43.681 26.8693 43.5227 27.2166 43.2929 27.5152C43.063 27.8138 42.7677 28.0558 42.4297 28.2225Z" fill="black"/>
<path opacity="0.25" d="M16.5873 10.0965L42.4296 24.7775C42.7677 24.9442 43.063 25.1862 43.2928 25.4848C43.5227 25.7834 43.681 26.1307 43.7556 26.5C43.722 26.0935 43.5817 25.7031 43.3489 25.3681C43.1161 25.0331 42.799 24.7654 42.4296 24.592L16.5873 9.91098C14.731 8.86423 13.2195 9.73873 13.2195 11.8587V12.0575C13.2593 9.92423 14.7443 9.04973 16.5873 10.0965V10.0965Z" fill="white"/>
<path d="M54.7343 17.225V9.27495H57.174C57.7114 9.2507 58.2482 9.33566 58.7519 9.52469C59.2556 9.71372 59.7156 10.0029 60.1043 10.3747C60.4735 10.7541 60.7616 11.2047 60.9508 11.6991C61.14 12.1934 61.2264 12.7211 61.2048 13.25C61.2264 13.7788 61.14 14.3065 60.9508 14.8008C60.7616 15.2952 60.4735 15.7458 60.1043 16.1252C59.7156 16.497 59.2556 16.7862 58.7519 16.9752C58.2482 17.1642 57.7114 17.2492 57.174 17.225H54.7343ZM55.7552 16.2445H57.1607C57.5601 16.2652 57.9595 16.2056 58.3354 16.069C58.7112 15.9324 59.0557 15.7217 59.3485 15.4494C59.6263 15.1573 59.8413 14.8115 59.9804 14.4332C60.1195 14.055 60.1797 13.6523 60.1573 13.25C60.1913 12.8493 60.1376 12.446 59.9999 12.0681C59.8622 11.6903 59.6438 11.347 59.3599 11.062C59.076 10.777 58.7334 10.5572 58.3559 10.418C57.9784 10.2787 57.5751 10.2232 57.174 10.2554H55.6889L55.7552 16.2445ZM62.6368 17.225V9.27495H63.6445V17.225H62.6368ZM67.7151 17.3972C67.1042 17.3863 66.5115 17.1873 66.0179 16.8275C65.4688 16.4525 65.0807 15.8849 64.9306 15.2375L65.8588 14.8664C65.9651 15.294 66.2014 15.6782 66.535 15.9662C66.8538 16.2571 67.2701 16.4178 67.7018 16.4167C68.1095 16.4302 68.5102 16.3091 68.8421 16.0722C68.9952 15.9658 69.1192 15.8227 69.2026 15.6561C69.286 15.4894 69.3262 15.3044 69.3194 15.1182C69.3278 14.9223 69.2888 14.7273 69.2057 14.5497C69.1227 14.3721 68.9979 14.2171 68.8421 14.0979C68.3844 13.7899 67.8778 13.5614 67.3438 13.4222C66.7496 13.263 66.2004 12.9682 65.7394 12.5609C65.563 12.3889 65.4238 12.1826 65.3303 11.9547C65.2368 11.7268 65.191 11.4822 65.1958 11.2359C65.1963 10.9547 65.2568 10.6769 65.3734 10.4209C65.4901 10.165 65.6601 9.93691 65.872 9.75195C66.3485 9.31593 66.9765 9.08299 67.6223 9.1027C68.212 9.07599 68.7929 9.25387 69.2664 9.6062C69.6446 9.88206 69.9311 10.2652 70.0885 10.7059L69.1603 11.0902C69.0791 10.8083 68.9066 10.5613 68.6697 10.388C68.3742 10.1755 68.0194 10.0612 67.6554 10.0612C67.2914 10.0612 66.9366 10.1755 66.6411 10.388C66.5115 10.4817 66.4064 10.6054 66.3349 10.7484C66.2633 10.8914 66.2274 11.0496 66.23 11.2094C66.2295 11.3568 66.2641 11.5022 66.3309 11.6335C66.3978 11.7649 66.495 11.8784 66.6146 11.9647C66.9565 12.2086 67.3377 12.3924 67.7416 12.508C68.0752 12.6136 68.4027 12.7375 68.7228 12.8789C69.0038 13.01 69.2704 13.1699 69.5183 13.3559C69.7807 13.5427 69.9907 13.7936 70.1283 14.0847C70.2738 14.4049 70.3462 14.7534 70.3404 15.1049C70.3469 15.4638 70.265 15.8188 70.1017 16.1385C69.9529 16.4265 69.7341 16.6725 69.4653 16.8539C69.2047 17.0327 68.9186 17.1712 68.6167 17.2647C68.3241 17.3519 68.0204 17.3965 67.7151 17.3972V17.3972ZM72.926 17.225H71.905V9.27495H74.5569C75.2056 9.26659 75.8325 9.50865 76.3071 9.9507C76.5417 10.1666 76.729 10.4288 76.8571 10.7207C76.9852 11.0127 77.0514 11.3279 77.0514 11.6467C77.0514 11.9655 76.9852 12.2807 76.8571 12.5727C76.729 12.8646 76.5417 13.1268 76.3071 13.3427C75.8332 13.7859 75.2058 14.0282 74.5569 14.0184H72.926V17.225ZM72.926 13.0247H74.6364C74.8303 13.0319 75.0234 12.9964 75.2021 12.9209C75.3808 12.8453 75.5408 12.7315 75.6706 12.5875C75.7989 12.4638 75.901 12.3157 75.9707 12.1517C76.0405 11.9878 76.0764 11.8116 76.0764 11.6335C76.0764 11.4553 76.0405 11.2791 75.9707 11.1152C75.901 10.9512 75.7989 10.8031 75.6706 10.6794C75.5408 10.5354 75.3808 10.4216 75.2021 10.346C75.0234 10.2705 74.8303 10.235 74.6364 10.2422H72.926V13.0247ZM84.8593 16.1914C84.0841 16.9617 83.0354 17.3941 81.9423 17.3941C80.8491 17.3941 79.8004 16.9617 79.0252 16.1914C78.2718 15.3945 77.852 14.3397 77.852 13.2433C77.852 12.147 78.2718 11.0922 79.0252 10.2952C79.4073 9.91061 79.8617 9.60537 80.3624 9.39708C80.863 9.18878 81.4 9.08154 81.9423 9.08154C82.4846 9.08154 83.0215 9.18878 83.5221 9.39708C84.0228 9.60537 84.4772 9.91061 84.8593 10.2952C85.6157 11.0906 86.0375 12.146 86.0375 13.2433C86.0375 14.3406 85.6157 15.396 84.8593 16.1914ZM79.781 15.5289C80.355 16.1002 81.1321 16.4209 81.9423 16.4209C82.7524 16.4209 83.5295 16.1002 84.1035 15.5289C84.67 14.9049 84.9838 14.0925 84.9838 13.25C84.9838 12.4074 84.67 11.595 84.1035 10.971C83.5295 10.3997 82.7524 10.079 81.9423 10.079C81.1321 10.079 80.355 10.3997 79.781 10.971C79.2145 11.595 78.9007 12.4074 78.9007 13.25C78.9007 14.0925 79.2145 14.9049 79.781 15.5289V15.5289ZM87.4448 17.225V9.27495H88.6912L92.5629 15.4627V9.27495H93.5839V17.225H92.5231L88.4791 10.7457V17.225H87.4448ZM95.4004 17.225V9.27495H96.4214V17.225H95.4004ZM98.2379 17.225V9.27495H101.115C101.713 9.26368 102.292 9.48183 102.733 9.88445C102.954 10.0766 103.131 10.315 103.25 10.5829C103.369 10.8508 103.428 11.1416 103.422 11.4347C103.428 11.7879 103.327 12.1346 103.131 12.4284C102.936 12.7139 102.665 12.9389 102.348 13.0777C102.733 13.2049 103.07 13.445 103.316 13.7667C103.571 14.0913 103.707 14.4936 103.701 14.9062C103.707 15.2117 103.647 15.5148 103.523 15.7942C103.399 16.0736 103.216 16.3223 102.985 16.5227C102.523 16.9483 101.916 17.1807 101.288 17.1719L98.2379 17.225ZM99.2588 12.6802H101.115C101.289 12.6874 101.461 12.6568 101.622 12.5904C101.782 12.5241 101.926 12.4236 102.043 12.296C102.161 12.1896 102.255 12.0607 102.322 11.9169C102.388 11.7731 102.425 11.6175 102.43 11.4592C102.435 11.3009 102.408 11.1433 102.351 10.9956C102.293 10.848 102.207 10.7134 102.096 10.5999C101.986 10.4747 101.848 10.3754 101.695 10.3089C101.541 10.2425 101.375 10.2107 101.208 10.2157H99.2588V12.6802ZM99.2588 16.2445H101.314C101.494 16.2505 101.672 16.2168 101.837 16.1458C102.002 16.0748 102.15 15.9682 102.269 15.8337C102.502 15.5914 102.635 15.2693 102.64 14.9327C102.64 14.5813 102.5 14.2443 102.252 13.9958C102.003 13.7473 101.666 13.6077 101.314 13.6077H99.2588V16.2445ZM105.066 17.225V9.27495H106.074V16.2445H109.522V17.225H105.066ZM115.462 10.2554H111.842V12.7729H115.104V13.727H111.842V16.2445H115.462V17.225H110.821V9.27495H115.462V10.2554ZM121.64 17.3972C121.03 17.3863 120.437 17.1873 119.943 16.8275C119.394 16.4525 119.006 15.8849 118.856 15.2375L119.784 14.8664C119.891 15.294 120.127 15.6782 120.46 15.9662C120.779 16.2571 121.196 16.4178 121.627 16.4167C122.035 16.4302 122.436 16.3091 122.768 16.0722C122.921 15.9658 123.045 15.8227 123.128 15.6561C123.211 15.4894 123.252 15.3044 123.245 15.1182C123.253 14.9223 123.214 14.7273 123.131 14.5497C123.048 14.3721 122.923 14.2171 122.768 14.0979C122.31 13.7899 121.803 13.5614 121.269 13.4222C120.675 13.263 120.126 12.9682 119.665 12.5609C119.488 12.3889 119.349 12.1826 119.256 11.9547C119.162 11.7268 119.116 11.4822 119.121 11.2359C119.122 10.9547 119.182 10.6769 119.299 10.4209C119.415 10.165 119.585 9.93691 119.797 9.75195C120.279 9.31748 120.912 9.08914 121.561 9.11595C122.151 9.08924 122.732 9.26712 123.205 9.61945C123.583 9.89531 123.87 10.2785 124.027 10.7192L123.099 11.1034C123.018 10.8215 122.845 10.5746 122.608 10.4012C122.313 10.1888 121.958 10.0745 121.594 10.0745C121.23 10.0745 120.875 10.1888 120.58 10.4012C120.45 10.495 120.345 10.6186 120.274 10.7617C120.202 10.9047 120.166 11.0628 120.169 11.2227C120.168 11.3701 120.203 11.5154 120.27 11.6468C120.336 11.7781 120.434 11.8916 120.553 11.978C120.895 12.2219 121.276 12.4056 121.68 12.5212C122.014 12.6269 122.341 12.7508 122.661 12.8922C122.942 13.0233 123.209 13.1831 123.457 13.3692C123.719 13.556 123.929 13.8069 124.067 14.0979C124.212 14.4181 124.285 14.7666 124.279 15.1182C124.286 15.4771 124.204 15.832 124.04 16.1517C123.892 16.4397 123.673 16.6857 123.404 16.8672C123.143 17.046 122.857 17.1845 122.555 17.278C122.258 17.3619 121.95 17.4021 121.64 17.3972V17.3972ZM128.535 17.3972C128.139 17.4132 127.743 17.3447 127.375 17.1962C127.007 17.0477 126.675 16.8226 126.401 16.5359C125.838 15.9185 125.543 15.1042 125.578 14.2702V9.27495H126.599V14.3099C126.573 14.8604 126.748 15.4018 127.09 15.8337C127.463 16.2142 127.969 16.4341 128.502 16.4464C129.035 16.4588 129.551 16.2627 129.941 15.9C130.283 15.468 130.458 14.9267 130.431 14.3762V9.27495H131.452V14.2702C131.489 15.0997 131.204 15.9115 130.657 16.5359C130.384 16.8216 130.054 17.0461 129.689 17.1946C129.323 17.3431 128.93 17.4121 128.535 17.3972V17.3972ZM133.123 17.225V9.27495H135.775C136.424 9.26659 137.05 9.50865 137.525 9.9507C137.961 10.351 138.224 10.904 138.261 11.4941C138.298 12.0843 138.106 12.6659 137.724 13.1174C137.386 13.5286 136.919 13.8135 136.398 13.9257L138.626 17.225H137.419L135.244 14.0052H134.104V17.225H133.123ZM134.144 13.0512H135.788C136.176 13.0591 136.551 12.9166 136.836 12.6537C136.976 12.5268 137.088 12.3713 137.164 12.1976C137.239 12.0239 137.276 11.836 137.273 11.6467C137.27 11.2916 137.133 10.9507 136.889 10.6927C136.759 10.5486 136.599 10.4348 136.42 10.3593C136.241 10.2837 136.048 10.2483 135.854 10.2554H134.144V13.0512Z" fill="white" stroke="white" stroke-width="0.2" stroke-miterlimit="10"/>
</g>
<defs>
<linearGradient id="paint0_linear" x1="28.9052" y1="11.5407" x2="6.67173" y2="33.7897" gradientUnits="userSpaceOnUse">
<stop stop-color="#00A0FF"/>
<stop offset="0.01" stop-color="#00A1FF"/>
<stop offset="0.26" stop-color="#00BEFF"/>
<stop offset="0.51" stop-color="#00D2FF"/>
<stop offset="0.76" stop-color="#00DFFF"/>
<stop offset="1" stop-color="#00E3FF"/>
</linearGradient>
<linearGradient id="paint1_linear" x1="44.8561" y1="26.5" x2="12.782" y2="26.5" gradientUnits="userSpaceOnUse">
<stop stop-color="#FFE000"/>
<stop offset="0.41" stop-color="#FFBD00"/>
<stop offset="0.78" stop-color="#FFA500"/>
<stop offset="1" stop-color="#FF9C00"/>
</linearGradient>
<linearGradient id="paint2_linear" x1="32.9227" y1="29.5475" x2="2.76572" y2="59.7123" gradientUnits="userSpaceOnUse">
<stop stop-color="#FF3A44"/>
<stop offset="1" stop-color="#C31162"/>
</linearGradient>
<linearGradient id="paint3_linear" x1="9.6792" y1="0.238527" x2="23.1412" y2="13.7099" gradientUnits="userSpaceOnUse">
<stop stop-color="#32A071"/>
<stop offset="0.07" stop-color="#2DA771"/>
<stop offset="0.48" stop-color="#15CF74"/>
<stop offset="0.8" stop-color="#06E775"/>
<stop offset="1" stop-color="#00F076"/>
</linearGradient>
<clipPath id="clip0">
<rect width="179" height="53" fill="white"/>
</clipPath>
</defs>
</svg>
