<svg width="16" height="16" viewBox="0 0 16 16" fill="none" xmlns="http://www.w3.org/2000/svg">
<path fill-rule="evenodd" clip-rule="evenodd" d="M0 8C0 12.4183 3.58172 16 8 16C12.4183 16 16 12.4183 16 8C16 3.58172 12.4183 0 8 0C3.58172 0 0 3.58172 0 8ZM6.35668 1.19397C4.96598 1.52855 3.73697 2.2783 2.80812 3.30478C3.51145 3.56605 4.37451 3.75485 5.3961 3.86919C5.62726 2.78151 5.95316 1.86284 6.35668 1.19397ZM6.40879 3.95503C6.80052 2.16669 7.41674 1 8 1C8.58327 1 9.19948 2.16669 9.59121 3.95503C9.0921 3.98495 8.56166 4 8 4C7.43834 4 6.9079 3.98495 6.40879 3.95503ZM5.2194 4.8556C4.01039 4.71577 2.99389 4.47376 2.16824 4.12687C1.6051 4.97309 1.22124 5.94888 1.07089 7H5.0208C5.05243 6.24783 5.1197 5.52803 5.2194 4.8556ZM6.02338 7C6.05751 6.27314 6.1277 5.58237 6.22552 4.94558C6.78221 4.98193 7.37366 5 8 5C8.62634 5 9.21779 4.98193 9.77448 4.94558C9.8723 5.58237 9.9425 6.27314 9.97662 7H6.02338ZM5 8H1C1 9.43221 1.43012 10.764 2.16824 11.8731C2.99389 11.5262 4.01039 11.2842 5.2194 11.1444C5.07627 10.1791 5 9.11617 5 8ZM6.22552 11.0544C6.08375 10.1315 6 9.09521 6 8H10C10 9.09521 9.91625 10.1315 9.77448 11.0544C9.21779 11.0181 8.62634 11 8 11C7.37366 11 6.78221 11.0181 6.22552 11.0544ZM5.3961 12.1308C4.37451 12.2452 3.51145 12.434 2.80812 12.6952C3.73697 13.7217 4.96598 14.4714 6.35668 14.806C5.95316 14.1372 5.62726 13.2185 5.3961 12.1308ZM9.64332 14.806C11.034 14.4714 12.263 13.7217 13.1919 12.6952C12.4886 12.434 11.6255 12.2452 10.6039 12.1308C10.3727 13.2185 10.0468 14.1372 9.64332 14.806ZM9.59121 12.045C9.19948 13.8333 8.58327 15 8 15C7.41674 15 6.80052 13.8333 6.40879 12.045C6.9079 12.015 7.43834 12 8 12C8.56166 12 9.0921 12.015 9.59121 12.045ZM10.7806 11.1444C11.9896 11.2842 13.0061 11.5262 13.8318 11.8731C14.5699 10.764 15 9.43221 15 8H11C11 9.11617 10.9237 10.1791 10.7806 11.1444ZM10.9792 7H14.9291C14.7788 5.94888 14.3949 4.97309 13.8318 4.12687C13.0061 4.47376 11.9896 4.71577 10.7806 4.8556C10.8803 5.52803 10.9476 6.24783 10.9792 7ZM10.6039 3.86919C11.6255 3.75485 12.4886 3.56605 13.1919 3.30478C12.263 2.2783 11.034 1.52855 9.64332 1.19397C10.0468 1.86284 10.3727 2.78151 10.6039 3.86919Z" fill="black"/>
</svg>
