<svg width="16" height="16" viewBox="0 0 16 16" fill="none" xmlns="http://www.w3.org/2000/svg">
<path fill-rule="evenodd" clip-rule="evenodd" d="M12.7941 9.99257C12.3218 9.64951 11.6936 9.61174 11.1837 9.89574L9.68097 10.7327C8.99384 10.224 8.18722 9.50729 7.26442 8.58385C6.3572 7.67598 5.69285 6.91254 5.27393 6.30077L6.10666 4.8224C6.39385 4.31255 6.35866 3.68215 6.01652 3.20748L4.15359 0.62294C3.66904 -0.0492998 2.73166 -0.201176 2.05989 0.283715C1.95595 0.358743 1.86204 0.446794 1.78048 0.545715L0.343005 2.28894C0.0160958 2.68539 -0.0853358 3.22168 0.0741773 3.71026C1.0215 6.61186 2.71524 9.17449 5.14864 11.3928C7.53056 13.5641 9.90523 15.0726 12.2748 15.9136C12.7695 16.0893 13.3201 15.9932 13.7262 15.6604L15.4503 14.2477C16.0912 13.7226 16.1853 12.777 15.6606 12.1357C15.5792 12.0362 15.4853 11.9475 15.3812 11.8719L12.7941 9.99257ZM5.82196 10.6531C3.51388 8.54909 1.91701 6.13301 1.02457 3.39953C0.971397 3.23667 1.00521 3.0579 1.11418 2.92574L2.55165 1.18252C2.57885 1.14954 2.61015 1.12019 2.64479 1.09518C2.86872 0.93355 3.18118 0.984176 3.34269 1.20826L5.20562 3.79279C5.31967 3.95102 5.3314 4.16115 5.23567 4.3311L4.25399 6.07389C4.16463 6.23253 4.16848 6.42723 4.26402 6.58221C4.71203 7.3089 5.47526 8.20839 6.55744 9.29133C7.63386 10.3685 8.56712 11.1825 9.3619 11.735C9.51858 11.8439 9.72354 11.8541 9.89023 11.7612L11.6699 10.77C11.8399 10.6753 12.0493 10.6879 12.2067 10.8023L14.7939 12.6816C14.8286 12.7068 14.8599 12.7364 14.887 12.7695C15.0619 12.9833 15.0305 13.2985 14.8169 13.4735L13.0928 14.8862C12.9574 14.9972 12.7739 15.0292 12.609 14.9707C10.3741 14.1774 8.11102 12.7398 5.82196 10.6531Z" fill="black"/>
</svg>
