<svg width="16" height="16" viewBox="0 0 16 16" fill="none" xmlns="http://www.w3.org/2000/svg">
<path fill-rule="evenodd" clip-rule="evenodd" d="M13.5 2H2.5C1.11929 2 0 3.11929 0 4.5V11.5C0 12.8807 1.11929 14 2.5 14H13.5C14.8807 14 16 12.8807 16 11.5V4.5C16 3.11929 14.8807 2 13.5 2ZM2.5 3C1.67157 3 1 3.67157 1 4.5V11.5C1 12.3284 1.67157 13 2.5 13H13.5C14.3284 13 15 12.3284 15 11.5V4.5C15 3.67157 14.3284 3 13.5 3H2.5ZM13.2606 5.06105C13.503 4.92882 13.8067 5.01815 13.9389 5.26057C14.0712 5.503 13.9819 5.80672 13.7394 5.93895L8.23943 8.93895C8.09019 9.02035 7.90981 9.02035 7.76057 8.93895L2.26057 5.93895C2.01815 5.80672 1.92882 5.503 2.06105 5.26057C2.19328 5.01815 2.497 4.92882 2.73943 5.06105L8 7.93046L13.2606 5.06105Z" fill="black"/>
</svg>
