<svg width="16" height="16" viewBox="0 0 16 16" fill="none" xmlns="http://www.w3.org/2000/svg">
<path fill-rule="evenodd" clip-rule="evenodd" d="M5.76547 8.31815C4.70039 7.59948 4 6.38154 4 5C4 2.79086 5.79086 1 8 1C10.2091 1 12 2.79086 12 5C12 6.38154 11.2996 7.59948 10.2345 8.31815C13.0324 9.14768 15 11.5205 15 14.5V15C15 15.2761 14.7761 15.5 14.5 15.5C14.2239 15.5 14 15.2761 14 15V14.5C14 11.3525 11.3956 9 8 9C4.60436 9 2 11.3525 2 14.5V15C2 15.2761 1.77614 15.5 1.5 15.5C1.22386 15.5 1 15.2761 1 15V14.5C1 11.5205 2.96761 9.14768 5.76547 8.31815ZM8 8C9.65685 8 11 6.65685 11 5C11 3.34315 9.65685 2 8 2C6.34315 2 5 3.34315 5 5C5 6.65685 6.34315 8 8 8Z" fill="black"/>
</svg>
