<svg width="555" height="180" viewBox="0 0 555 180" fill="none" xmlns="http://www.w3.org/2000/svg">
<g clip-path="url(#clip0)">
<path d="M68.6491 47.9654C79.7551 47.9654 88.7584 37.228 88.7584 23.9827C88.7584 10.7374 79.7551 0 68.6491 0C57.543 0 48.5397 10.7374 48.5397 23.9827C48.5397 37.228 57.543 47.9654 68.6491 47.9654Z" fill="white"/>
<path d="M50.1 148.571C46.4595 152.468 37.2716 165.628 37.2716 165.628H104.1C104.1 165.628 93.8724 151.948 89.9719 147.792C72.8096 129.437 57.901 140.26 50.1 148.571Z" fill="white"/>
<path d="M66.4821 91.342L46.0261 81.645L68.2157 109.697C68.5624 110.216 69.5159 112.294 71.1627 109.957L95.1726 82.2511L74.8032 91.4286C72.2029 92.5541 69.1691 92.5541 66.4821 91.342Z" fill="white"/>
<path d="M143.452 44.8485C141.979 42.9437 139.378 42.2511 137.211 43.2035L70.816 73.0736L7.36764 43.2035C5.20069 42.1645 2.60034 42.7706 1.12681 44.6753C-0.346714 46.5801 -0.346714 49.1775 1.12681 51.0822L53.3937 117.316L12.395 171.775C11.1815 173.333 11.0081 175.411 11.8749 177.229C12.7417 179.048 14.5619 180.087 16.4688 180.087H125.423C127.417 180.087 129.237 178.961 130.104 177.143C130.971 175.325 130.711 173.247 129.497 171.688L86.3314 117.143L143.192 51.2554C144.839 49.4372 144.926 46.7532 143.452 44.8485ZM75.7567 113.593C74.1098 115.498 74.1098 118.268 75.5833 120.173L114.762 169.697H26.8702L64.0551 120.346C65.442 118.442 65.442 115.844 63.9684 114.026L22.883 61.9913L68.5624 83.5498C69.9492 84.1558 71.5094 84.2424 72.8963 83.5498L120.049 62.2511L75.7567 113.593Z" fill="white"/>
<path d="M184.191 132.121C178.21 126.147 175.176 118.788 175.176 110.13C175.176 101.472 178.21 94.1126 184.191 88.052C190.172 81.9914 197.539 78.9611 206.207 78.9611C214.875 78.9611 222.156 81.9914 228.223 88.052C234.291 94.1126 237.325 101.472 237.325 110.13C237.325 118.788 234.291 126.061 228.223 132.121C222.156 138.095 214.875 141.126 206.207 141.126C197.539 141.126 190.258 138.182 184.191 132.121ZM192.252 96.1039C188.352 100 186.445 104.675 186.445 110.13C186.445 115.584 188.352 120.26 192.252 124.069C196.153 127.965 200.747 129.87 206.207 129.87C211.668 129.87 216.349 127.965 220.249 124.069C224.15 120.173 226.057 115.584 226.057 110.13C226.057 104.675 224.063 100 220.162 96.1039C216.262 92.2078 211.581 90.2165 206.207 90.2165C200.833 90.2165 196.153 92.2078 192.252 96.1039Z" fill="white"/>
<path d="M283.264 120.433C283.264 126.32 281.444 131.342 277.803 135.238C274.163 139.221 269.396 141.212 263.501 141.212C259.948 141.212 256.827 140.693 253.88 139.567V158.874C253.88 159.307 253.707 159.74 253.273 160.173C252.84 160.606 252.407 160.779 251.973 160.779H244.952C244.432 160.779 243.999 160.606 243.652 160.173C243.305 159.74 243.132 159.307 243.132 158.874V102.251C243.132 101.732 243.305 101.299 243.652 100.952C243.999 100.606 244.432 100.433 244.952 100.433H248.159C249.026 100.433 249.633 101.039 250.066 102.338L251.107 105.541C251.193 105.368 251.367 105.195 251.627 104.935C251.887 104.675 252.407 104.242 253.187 103.55C254.054 102.857 254.92 102.251 255.874 101.732C256.827 101.212 258.041 100.779 259.514 100.346C260.988 99.9134 262.548 99.7402 264.108 99.7402C269.569 99.7402 274.163 101.732 277.717 105.628C281.444 109.437 283.264 114.372 283.264 120.433ZM253.88 114.892V129.091C256.047 130.563 258.821 131.342 262.201 131.342C265.322 131.342 267.749 130.303 269.482 128.139C271.216 125.974 272.083 123.377 272.083 120.433C272.083 117.403 271.216 114.892 269.569 112.641C267.922 110.476 265.582 109.351 262.635 109.351C260.294 109.351 258.387 109.957 256.827 111.082C255.44 112.294 254.4 113.506 253.88 114.892Z" fill="white"/>
<path d="M286.991 120.346C286.991 114.632 288.898 109.697 292.712 105.628C296.526 101.558 301.293 99.5671 307.101 99.5671C312.301 99.5671 316.722 101.299 320.189 104.762C323.656 108.225 325.39 112.641 325.39 118.009C325.39 118.961 325.303 119.827 325.216 120.606C325.13 121.126 324.956 121.558 324.61 121.905C324.263 122.251 323.829 122.424 323.396 122.424H297.826C297.913 124.935 298.866 127.1 300.686 128.918C302.593 130.736 304.934 131.602 307.707 131.602C311.001 131.602 313.861 130.649 316.288 128.658C317.415 127.706 318.282 127.706 318.889 128.658L322.269 133.16C323.049 134.113 323.049 134.978 322.096 135.758C317.849 139.394 312.908 141.212 307.274 141.212C301.38 141.212 296.526 139.221 292.799 135.152C288.898 131.082 286.991 126.147 286.991 120.346ZM298.346 115.325H314.468C314.382 113.333 313.601 111.688 312.215 110.39C310.828 109.091 309.007 108.398 306.841 108.398C304.5 108.398 302.593 109.004 301.033 110.303C299.56 111.688 298.693 113.333 298.346 115.325Z" fill="white"/>
<path d="M330.937 138.355V102.251C330.937 101.732 331.11 101.299 331.457 100.952C331.804 100.606 332.237 100.433 332.757 100.433H336.051C336.831 100.433 337.438 100.866 337.698 101.645L339.171 105.368C342.639 101.472 346.886 99.5671 352 99.5671C362.661 99.5671 367.949 105.628 367.949 117.749V138.355C367.949 138.875 367.775 139.307 367.342 139.654C366.908 140 366.475 140.173 366.042 140.173H359.021C358.501 140.173 358.067 140 357.721 139.654C357.374 139.307 357.201 138.875 357.201 138.355V117.749C357.201 112.208 354.86 109.351 350.266 109.351C345.932 109.351 343.072 111.429 341.598 115.584V138.355C341.598 139.134 341.425 139.567 341.078 139.827C340.732 140.087 340.038 140.173 339.085 140.173H332.844C332.411 140.173 331.977 140 331.544 139.654C331.11 139.394 330.937 138.875 330.937 138.355Z" fill="white"/>
<path d="M380.084 138.615V90.2164H366.908C366.475 90.2164 366.042 90.0433 365.782 89.7835C365.435 89.4372 365.348 89.0909 365.348 88.658V81.5584C365.348 81.1255 365.522 80.6926 365.782 80.4329C366.128 80.0866 366.475 80 366.908 80H404.613C405.047 80 405.48 80.1732 405.74 80.4329C406.087 80.7792 406.174 81.1255 406.174 81.5584V88.658C406.174 89.0909 406 89.5238 405.74 89.7835C405.394 90.1299 405.047 90.2164 404.613 90.2164H391.438V138.615C391.438 139.048 391.265 139.394 391.005 139.74C390.658 140.087 390.312 140.26 389.878 140.26H381.817C381.384 140.26 381.037 140.087 380.69 139.74C380.344 139.394 380.084 139.048 380.084 138.615Z" fill="white"/>
<path d="M401.926 120.346C401.926 114.632 403.833 109.697 407.647 105.628C411.461 101.558 416.228 99.5671 422.036 99.5671C427.236 99.5671 431.657 101.299 435.124 104.762C438.591 108.225 440.325 112.641 440.325 118.009C440.325 118.961 440.238 119.827 440.151 120.606C440.065 121.126 439.891 121.558 439.545 121.905C439.198 122.251 438.765 122.424 438.331 122.424H412.761C412.848 124.935 413.801 127.1 415.622 128.918C417.529 130.736 419.869 131.602 422.643 131.602C425.936 131.602 428.797 130.649 431.224 128.658C432.35 127.706 433.217 127.706 433.824 128.658L437.204 133.16C437.985 134.113 437.985 134.978 437.031 135.758C432.784 139.394 427.843 141.212 422.209 141.212C416.315 141.212 411.461 139.221 407.734 135.152C404.007 131.082 401.926 126.147 401.926 120.346ZM413.281 115.325H429.403C429.317 113.333 428.537 111.688 427.15 110.39C425.763 109.091 423.943 108.398 421.776 108.398C419.435 108.398 417.529 109.004 415.968 110.303C414.495 111.688 413.628 113.333 413.281 115.325Z" fill="white"/>
<path d="M445.872 138.355V102.251C445.872 101.732 446.046 101.299 446.392 100.952C446.739 100.606 447.172 100.433 447.692 100.433H450.813C451.766 100.433 452.286 100.779 452.46 101.559L453.933 105.368C457.314 101.472 461.301 99.5672 466.068 99.5672C468.842 99.5672 471.096 100 472.742 100.952C474.476 101.905 476.21 103.463 477.943 105.541C481.757 101.559 486.091 99.4806 490.772 99.4806C496.666 99.4806 500.826 101.126 503.08 104.329C505.42 107.619 506.547 112.121 506.547 117.922V138.268C506.547 138.788 506.374 139.221 506.027 139.567C505.68 139.913 505.16 140.087 504.64 140.087H497.706C497.186 140.087 496.752 139.913 496.406 139.567C496.059 139.221 495.886 138.788 495.886 138.268V117.749C495.886 112.208 493.545 109.351 488.951 109.351C487.218 109.351 485.744 109.697 484.531 110.39C483.317 111.082 482.45 111.775 482.104 112.468L481.584 113.507C481.67 114.805 481.757 116.104 481.757 117.316V138.355C481.757 138.875 481.584 139.307 481.15 139.654C480.717 140 480.283 140.173 479.85 140.173H472.742C472.136 140.173 471.702 140 471.356 139.654C471.009 139.307 470.836 138.875 470.836 138.355V117.749C470.836 114.978 470.315 112.901 469.362 111.515C468.409 110.13 466.675 109.437 464.248 109.437C460.521 109.437 458.007 111.515 456.534 115.671V138.442C456.534 138.961 456.36 139.394 455.927 139.74C455.494 140.087 455.06 140.26 454.627 140.26H447.606C447.172 140.26 446.739 140.087 446.306 139.74C446.046 139.394 445.872 138.875 445.872 138.355Z" fill="white"/>
<path d="M555 120.433C555 126.32 553.18 131.342 549.539 135.238C545.899 139.221 541.132 141.212 535.237 141.212C531.684 141.212 528.563 140.693 525.616 139.567V158.874C525.616 159.307 525.443 159.74 525.009 160.173C524.576 160.606 524.143 160.779 523.709 160.779H516.688C516.168 160.779 515.735 160.606 515.388 160.173C515.041 159.74 514.868 159.307 514.868 158.874V102.251C514.868 101.732 515.041 101.299 515.388 100.952C515.735 100.606 516.168 100.433 516.688 100.433H519.895C520.762 100.433 521.369 101.039 521.802 102.338L522.842 105.541C522.929 105.368 523.102 105.195 523.362 104.935C523.623 104.675 524.143 104.242 524.923 103.55C525.789 102.857 526.656 102.251 527.61 101.732C528.563 101.212 529.777 100.779 531.25 100.346C532.724 99.9134 534.284 99.7402 535.844 99.7402C541.305 99.7402 545.899 101.732 549.453 105.628C553.18 109.437 555 114.372 555 120.433ZM525.616 114.892V129.091C527.783 130.563 530.557 131.342 533.937 131.342C537.058 131.342 539.485 130.303 541.218 128.139C542.952 125.974 543.819 123.377 543.819 120.433C543.819 117.403 542.952 114.892 541.305 112.641C539.658 110.476 537.318 109.351 534.371 109.351C532.03 109.351 530.123 109.957 528.563 111.082C527.09 112.294 526.136 113.506 525.616 114.892Z" fill="white"/>
</g>
<defs>
<clipPath id="clip0">
<rect width="555" height="180" fill="white"/>
</clipPath>
</defs>
</svg>
