<svg width="16" height="14" viewBox="0 0 16 14" fill="none" xmlns="http://www.w3.org/2000/svg">
<path d="M16 2.09816C15.4121 2.36923 14.7791 2.55255 14.1152 2.63445C14.7932 2.21322 15.3135 1.54529 15.5586 0.749621C14.9238 1.13965 14.2222 1.4234 13.4728 1.57551C12.8755 0.913435 12.0218 0.5 11.0771 0.5C9.26548 0.5 7.79574 2.026 7.79574 3.90791C7.79574 4.17508 7.82391 4.43445 7.88026 4.68407C5.15208 4.54171 2.73381 3.18635 1.11381 1.1221C0.831132 1.62719 0.669601 2.21322 0.669601 2.83727C0.669601 4.01907 1.24905 5.06241 2.12995 5.67378C1.59277 5.65721 1.08564 5.50217 0.642367 5.24865V5.29057C0.642367 6.94236 1.77402 8.32015 3.27663 8.63218C3.00147 8.71213 2.71128 8.75211 2.41169 8.75211C2.20039 8.75211 1.99378 8.73164 1.79374 8.69166C2.21166 10.0451 3.42314 11.0309 4.86001 11.0572C3.73681 11.9718 2.3206 12.5169 0.783236 12.5169C0.518401 12.5169 0.256383 12.5013 0 12.4701C1.45284 13.4354 3.17896 14 5.03187 14C11.0705 14 14.3715 8.80769 14.3715 4.30379C14.3715 4.15558 14.3687 4.00737 14.3631 3.86208C15.0045 3.38137 15.5614 2.78169 16 2.09816Z" fill="#D9D9D9"/>
</svg>
